<svg width="257" height="80" viewBox="0 0 257 80" fill="none" xmlns="http://www.w3.org/2000/svg">
<rect x="3" y="3" width="251" height="74" stroke="white" stroke-width="6"/>
<mask id="path-2-outside-1_1_5" maskUnits="userSpaceOnUse" x="21" y="26" width="213" height="27" fill="black">
<rect fill="white" x="21" y="26" width="213" height="27"/>
<path d="M23.6591 27.7273H29.1705L34.4773 37.75H34.7045L40.0114 27.7273H45.5227L37.0341 42.7727V51H32.1477V42.7727L23.6591 27.7273ZM68.1903 39.3636C68.1903 41.9015 67.7093 44.0606 66.7472 45.8409C65.7926 47.6212 64.4896 48.9811 62.8381 49.9205C61.1941 50.8523 59.3456 51.3182 57.2926 51.3182C55.2244 51.3182 53.3684 50.8485 51.7244 49.9091C50.0805 48.9697 48.7813 47.6098 47.8267 45.8295C46.8722 44.0492 46.3949 41.8939 46.3949 39.3636C46.3949 36.8258 46.8722 34.6667 47.8267 32.8864C48.7813 31.1061 50.0805 29.75 51.7244 28.8182C53.3684 27.8788 55.2244 27.4091 57.2926 27.4091C59.3456 27.4091 61.1941 27.8788 62.8381 28.8182C64.4896 29.75 65.7926 31.1061 66.7472 32.8864C67.7093 34.6667 68.1903 36.8258 68.1903 39.3636ZM63.2017 39.3636C63.2017 37.7197 62.9555 36.3333 62.4631 35.2045C61.9782 34.0758 61.2926 33.2197 60.4062 32.6364C59.5199 32.053 58.482 31.7614 57.2926 31.7614C56.1032 31.7614 55.0653 32.053 54.179 32.6364C53.2926 33.2197 52.6032 34.0758 52.1108 35.2045C51.6259 36.3333 51.3835 37.7197 51.3835 39.3636C51.3835 41.0076 51.6259 42.3939 52.1108 43.5227C52.6032 44.6515 53.2926 45.5076 54.179 46.0909C55.0653 46.6742 56.1032 46.9659 57.2926 46.9659C58.482 46.9659 59.5199 46.6742 60.4062 46.0909C61.2926 45.5076 61.9782 44.6515 62.4631 43.5227C62.9555 42.3939 63.2017 41.0076 63.2017 39.3636ZM86.2102 27.7273H91.1307V42.8409C91.1307 44.5379 90.7254 46.0227 89.9148 47.2955C89.1117 48.5682 87.9867 49.5606 86.5398 50.2727C85.0928 50.9773 83.4072 51.3295 81.483 51.3295C79.5511 51.3295 77.8617 50.9773 76.4148 50.2727C74.9678 49.5606 73.8428 48.5682 73.0398 47.2955C72.2367 46.0227 71.8352 44.5379 71.8352 42.8409V27.7273H76.7557V42.4205C76.7557 43.3068 76.9489 44.0947 77.3352 44.7841C77.7292 45.4735 78.2822 46.0152 78.9943 46.4091C79.7064 46.803 80.536 47 81.483 47C82.4375 47 83.267 46.803 83.9716 46.4091C84.6837 46.0152 85.233 45.4735 85.6193 44.7841C86.0133 44.0947 86.2102 43.3068 86.2102 42.4205V27.7273ZM95.179 51V27.7273H104.361C106.118 27.7273 107.618 28.0417 108.861 28.6705C110.111 29.2917 111.062 30.1742 111.713 31.3182C112.372 32.4545 112.702 33.7917 112.702 35.3295C112.702 36.875 112.368 38.2045 111.702 39.3182C111.035 40.4242 110.069 41.2727 108.804 41.8636C107.546 42.4545 106.024 42.75 104.236 42.75H98.0881V38.7955H103.44C104.38 38.7955 105.16 38.6667 105.781 38.4091C106.402 38.1515 106.865 37.7652 107.168 37.25C107.478 36.7348 107.634 36.0947 107.634 35.3295C107.634 34.5568 107.478 33.9053 107.168 33.375C106.865 32.8447 106.399 32.4432 105.77 32.1705C105.149 31.8902 104.365 31.75 103.418 31.75H100.099V51H95.179ZM107.747 40.4091L113.531 51H108.099L102.44 40.4091H107.747ZM123.585 51V27.7273H132.903C134.616 27.7273 136.044 27.9811 137.188 28.4886C138.331 28.9962 139.191 29.7008 139.767 30.6023C140.343 31.4962 140.631 32.5265 140.631 33.6932C140.631 34.6023 140.449 35.4015 140.085 36.0909C139.722 36.7727 139.222 37.3333 138.585 37.7727C137.956 38.2045 137.237 38.5114 136.426 38.6932V38.9205C137.313 38.9583 138.142 39.2083 138.915 39.6705C139.695 40.1326 140.328 40.7803 140.812 41.6136C141.297 42.4394 141.54 43.4242 141.54 44.5682C141.54 45.803 141.233 46.9053 140.619 47.875C140.013 48.8371 139.116 49.5985 137.926 50.1591C136.737 50.7197 135.271 51 133.528 51H123.585ZM128.506 46.9773H132.517C133.888 46.9773 134.888 46.7159 135.517 46.1932C136.146 45.6629 136.46 44.9583 136.46 44.0795C136.46 43.4356 136.305 42.8674 135.994 42.375C135.684 41.8826 135.241 41.4962 134.665 41.2159C134.097 40.9356 133.419 40.7955 132.631 40.7955H128.506V46.9773ZM128.506 37.4659H132.153C132.828 37.4659 133.426 37.3485 133.949 37.1136C134.479 36.8712 134.896 36.5303 135.199 36.0909C135.509 35.6515 135.665 35.125 135.665 34.5114C135.665 33.6705 135.366 32.9924 134.767 32.4773C134.176 31.9621 133.335 31.7045 132.244 31.7045H128.506V37.4659ZM144.741 51V27.7273H153.923C155.681 27.7273 157.181 28.0417 158.423 28.6705C159.673 29.2917 160.624 30.1742 161.276 31.3182C161.935 32.4545 162.264 33.7917 162.264 35.3295C162.264 36.875 161.931 38.2045 161.264 39.3182C160.598 40.4242 159.632 41.2727 158.366 41.8636C157.109 42.4545 155.586 42.75 153.798 42.75H147.651V38.7955H153.003C153.942 38.7955 154.723 38.6667 155.344 38.4091C155.965 38.1515 156.427 37.7652 156.73 37.25C157.041 36.7348 157.196 36.0947 157.196 35.3295C157.196 34.5568 157.041 33.9053 156.73 33.375C156.427 32.8447 155.961 32.4432 155.332 32.1705C154.711 31.8902 153.927 31.75 152.98 31.75H149.662V51H144.741ZM157.31 40.4091L163.094 51H157.662L152.003 40.4091H157.31ZM169.753 51H164.48L172.514 27.7273H178.855L186.878 51H181.605L175.776 33.0455H175.594L169.753 51ZM169.423 41.8523H181.878V45.6932H169.423V41.8523ZM209.145 27.7273V51H204.895L194.77 36.3523H194.599V51H189.679V27.7273H193.997L204.043 42.3636H204.247V27.7273H209.145ZM221.46 51H213.21V27.7273H221.528C223.869 27.7273 225.884 28.1932 227.574 29.125C229.263 30.0492 230.563 31.3788 231.472 33.1136C232.388 34.8485 232.847 36.9242 232.847 39.3409C232.847 41.7652 232.388 43.8485 231.472 45.5909C230.563 47.3333 229.256 48.6705 227.551 49.6023C225.854 50.5341 223.824 51 221.46 51ZM218.131 46.7841H221.256C222.71 46.7841 223.934 46.5265 224.926 46.0114C225.926 45.4886 226.676 44.6818 227.176 43.5909C227.684 42.4924 227.938 41.0758 227.938 39.3409C227.938 37.6212 227.684 36.2159 227.176 35.125C226.676 34.0341 225.93 33.2311 224.938 32.7159C223.945 32.2008 222.722 31.9432 221.267 31.9432H218.131V46.7841Z"/>
</mask>
<path d="M23.6591 27.7273H29.1705L34.4773 37.75H34.7045L40.0114 27.7273H45.5227L37.0341 42.7727V51H32.1477V42.7727L23.6591 27.7273ZM68.1903 39.3636C68.1903 41.9015 67.7093 44.0606 66.7472 45.8409C65.7926 47.6212 64.4896 48.9811 62.8381 49.9205C61.1941 50.8523 59.3456 51.3182 57.2926 51.3182C55.2244 51.3182 53.3684 50.8485 51.7244 49.9091C50.0805 48.9697 48.7813 47.6098 47.8267 45.8295C46.8722 44.0492 46.3949 41.8939 46.3949 39.3636C46.3949 36.8258 46.8722 34.6667 47.8267 32.8864C48.7813 31.1061 50.0805 29.75 51.7244 28.8182C53.3684 27.8788 55.2244 27.4091 57.2926 27.4091C59.3456 27.4091 61.1941 27.8788 62.8381 28.8182C64.4896 29.75 65.7926 31.1061 66.7472 32.8864C67.7093 34.6667 68.1903 36.8258 68.1903 39.3636ZM63.2017 39.3636C63.2017 37.7197 62.9555 36.3333 62.4631 35.2045C61.9782 34.0758 61.2926 33.2197 60.4062 32.6364C59.5199 32.053 58.482 31.7614 57.2926 31.7614C56.1032 31.7614 55.0653 32.053 54.179 32.6364C53.2926 33.2197 52.6032 34.0758 52.1108 35.2045C51.6259 36.3333 51.3835 37.7197 51.3835 39.3636C51.3835 41.0076 51.6259 42.3939 52.1108 43.5227C52.6032 44.6515 53.2926 45.5076 54.179 46.0909C55.0653 46.6742 56.1032 46.9659 57.2926 46.9659C58.482 46.9659 59.5199 46.6742 60.4062 46.0909C61.2926 45.5076 61.9782 44.6515 62.4631 43.5227C62.9555 42.3939 63.2017 41.0076 63.2017 39.3636ZM86.2102 27.7273H91.1307V42.8409C91.1307 44.5379 90.7254 46.0227 89.9148 47.2955C89.1117 48.5682 87.9867 49.5606 86.5398 50.2727C85.0928 50.9773 83.4072 51.3295 81.483 51.3295C79.5511 51.3295 77.8617 50.9773 76.4148 50.2727C74.9678 49.5606 73.8428 48.5682 73.0398 47.2955C72.2367 46.0227 71.8352 44.5379 71.8352 42.8409V27.7273H76.7557V42.4205C76.7557 43.3068 76.9489 44.0947 77.3352 44.7841C77.7292 45.4735 78.2822 46.0152 78.9943 46.4091C79.7064 46.803 80.536 47 81.483 47C82.4375 47 83.267 46.803 83.9716 46.4091C84.6837 46.0152 85.233 45.4735 85.6193 44.7841C86.0133 44.0947 86.2102 43.3068 86.2102 42.4205V27.7273ZM95.179 51V27.7273H104.361C106.118 27.7273 107.618 28.0417 108.861 28.6705C110.111 29.2917 111.062 30.1742 111.713 31.3182C112.372 32.4545 112.702 33.7917 112.702 35.3295C112.702 36.875 112.368 38.2045 111.702 39.3182C111.035 40.4242 110.069 41.2727 108.804 41.8636C107.546 42.4545 106.024 42.75 104.236 42.75H98.0881V38.7955H103.44C104.38 38.7955 105.16 38.6667 105.781 38.4091C106.402 38.1515 106.865 37.7652 107.168 37.25C107.478 36.7348 107.634 36.0947 107.634 35.3295C107.634 34.5568 107.478 33.9053 107.168 33.375C106.865 32.8447 106.399 32.4432 105.77 32.1705C105.149 31.8902 104.365 31.75 103.418 31.75H100.099V51H95.179ZM107.747 40.4091L113.531 51H108.099L102.44 40.4091H107.747ZM123.585 51V27.7273H132.903C134.616 27.7273 136.044 27.9811 137.188 28.4886C138.331 28.9962 139.191 29.7008 139.767 30.6023C140.343 31.4962 140.631 32.5265 140.631 33.6932C140.631 34.6023 140.449 35.4015 140.085 36.0909C139.722 36.7727 139.222 37.3333 138.585 37.7727C137.956 38.2045 137.237 38.5114 136.426 38.6932V38.9205C137.313 38.9583 138.142 39.2083 138.915 39.6705C139.695 40.1326 140.328 40.7803 140.812 41.6136C141.297 42.4394 141.54 43.4242 141.54 44.5682C141.54 45.803 141.233 46.9053 140.619 47.875C140.013 48.8371 139.116 49.5985 137.926 50.1591C136.737 50.7197 135.271 51 133.528 51H123.585ZM128.506 46.9773H132.517C133.888 46.9773 134.888 46.7159 135.517 46.1932C136.146 45.6629 136.46 44.9583 136.46 44.0795C136.46 43.4356 136.305 42.8674 135.994 42.375C135.684 41.8826 135.241 41.4962 134.665 41.2159C134.097 40.9356 133.419 40.7955 132.631 40.7955H128.506V46.9773ZM128.506 37.4659H132.153C132.828 37.4659 133.426 37.3485 133.949 37.1136C134.479 36.8712 134.896 36.5303 135.199 36.0909C135.509 35.6515 135.665 35.125 135.665 34.5114C135.665 33.6705 135.366 32.9924 134.767 32.4773C134.176 31.9621 133.335 31.7045 132.244 31.7045H128.506V37.4659ZM144.741 51V27.7273H153.923C155.681 27.7273 157.181 28.0417 158.423 28.6705C159.673 29.2917 160.624 30.1742 161.276 31.3182C161.935 32.4545 162.264 33.7917 162.264 35.3295C162.264 36.875 161.931 38.2045 161.264 39.3182C160.598 40.4242 159.632 41.2727 158.366 41.8636C157.109 42.4545 155.586 42.75 153.798 42.75H147.651V38.7955H153.003C153.942 38.7955 154.723 38.6667 155.344 38.4091C155.965 38.1515 156.427 37.7652 156.73 37.25C157.041 36.7348 157.196 36.0947 157.196 35.3295C157.196 34.5568 157.041 33.9053 156.73 33.375C156.427 32.8447 155.961 32.4432 155.332 32.1705C154.711 31.8902 153.927 31.75 152.98 31.75H149.662V51H144.741ZM157.31 40.4091L163.094 51H157.662L152.003 40.4091H157.31ZM169.753 51H164.48L172.514 27.7273H178.855L186.878 51H181.605L175.776 33.0455H175.594L169.753 51ZM169.423 41.8523H181.878V45.6932H169.423V41.8523ZM209.145 27.7273V51H204.895L194.77 36.3523H194.599V51H189.679V27.7273H193.997L204.043 42.3636H204.247V27.7273H209.145ZM221.46 51H213.21V27.7273H221.528C223.869 27.7273 225.884 28.1932 227.574 29.125C229.263 30.0492 230.563 31.3788 231.472 33.1136C232.388 34.8485 232.847 36.9242 232.847 39.3409C232.847 41.7652 232.388 43.8485 231.472 45.5909C230.563 47.3333 229.256 48.6705 227.551 49.6023C225.854 50.5341 223.824 51 221.46 51ZM218.131 46.7841H221.256C222.71 46.7841 223.934 46.5265 224.926 46.0114C225.926 45.4886 226.676 44.6818 227.176 43.5909C227.684 42.4924 227.938 41.0758 227.938 39.3409C227.938 37.6212 227.684 36.2159 227.176 35.125C226.676 34.0341 225.93 33.2311 224.938 32.7159C223.945 32.2008 222.722 31.9432 221.267 31.9432H218.131V46.7841Z" fill="white"/>
<path d="M23.6591 27.7273V26.7273H21.9467L22.7881 28.2187L23.6591 27.7273ZM29.1705 27.7273L30.0542 27.2593L29.7725 26.7273H29.1705V27.7273ZM34.4773 37.75L33.5935 38.2179L33.8752 38.75H34.4773V37.75ZM34.7045 37.75V38.75H35.3066L35.5883 38.2179L34.7045 37.75ZM40.0114 27.7273V26.7273H39.4093L39.1276 27.2593L40.0114 27.7273ZM45.5227 27.7273L46.3937 28.2187L47.2351 26.7273H45.5227V27.7273ZM37.0341 42.7727L36.1631 42.2813L36.0341 42.5101V42.7727H37.0341ZM37.0341 51V52H38.0341V51H37.0341ZM32.1477 51H31.1477V52H32.1477V51ZM32.1477 42.7727H33.1477V42.5101L33.0187 42.2813L32.1477 42.7727ZM23.6591 27.7273V28.7273H29.1705V27.7273V26.7273H23.6591V27.7273ZM29.1705 27.7273L28.2867 28.1952L33.5935 38.2179L34.4773 37.75L35.361 37.2821L30.0542 27.2593L29.1705 27.7273ZM34.4773 37.75V38.75H34.7045V37.75V36.75H34.4773V37.75ZM34.7045 37.75L35.5883 38.2179L40.8951 28.1952L40.0114 27.7273L39.1276 27.2593L33.8208 37.2821L34.7045 37.75ZM40.0114 27.7273V28.7273H45.5227V27.7273V26.7273H40.0114V27.7273ZM45.5227 27.7273L44.6518 27.2359L36.1631 42.2813L37.0341 42.7727L37.905 43.2641L46.3937 28.2187L45.5227 27.7273ZM37.0341 42.7727H36.0341V51H37.0341H38.0341V42.7727H37.0341ZM37.0341 51V50H32.1477V51V52H37.0341V51ZM32.1477 51H33.1477V42.7727H32.1477H31.1477V51H32.1477ZM32.1477 42.7727L33.0187 42.2813L24.53 27.2359L23.6591 27.7273L22.7881 28.2187L31.2768 43.2641L32.1477 42.7727ZM66.7472 45.8409L65.8674 45.3655L65.8658 45.3684L66.7472 45.8409ZM62.8381 49.9205L63.3312 50.7904L63.3325 50.7897L62.8381 49.9205ZM51.7244 49.9091L52.2206 49.0408L51.7244 49.9091ZM47.8267 45.8295L46.9454 46.3021L46.9454 46.3021L47.8267 45.8295ZM47.8267 32.8864L48.708 33.3589L48.708 33.3589L47.8267 32.8864ZM51.7244 28.8182L52.2175 29.6882L52.2206 29.6864L51.7244 28.8182ZM62.8381 28.8182L62.3419 29.6864L62.3467 29.6891L62.8381 28.8182ZM66.7472 32.8864L65.8658 33.3589L65.8674 33.3618L66.7472 32.8864ZM62.4631 35.2045L61.5442 35.5992L61.5465 35.6044L62.4631 35.2045ZM60.4062 32.6364L59.8565 33.4717L59.8565 33.4717L60.4062 32.6364ZM54.179 32.6364L54.7287 33.4717L54.7287 33.4717L54.179 32.6364ZM52.1108 35.2045L51.1942 34.8047L51.192 34.8099L52.1108 35.2045ZM52.1108 43.5227L51.192 43.9174L51.1942 43.9226L52.1108 43.5227ZM54.179 46.0909L54.7287 45.2556L54.7287 45.2556L54.179 46.0909ZM60.4062 46.0909L59.8565 45.2556L59.8565 45.2556L60.4062 46.0909ZM62.4631 43.5227L61.5465 43.1229L61.5442 43.1281L62.4631 43.5227ZM68.1903 39.3636H67.1903C67.1903 41.7769 66.733 43.7638 65.8674 45.3655L66.7472 45.8409L67.6269 46.3163C68.6855 44.3575 69.1903 42.0261 69.1903 39.3636H68.1903ZM66.7472 45.8409L65.8658 45.3684C64.9944 46.9936 63.8209 48.2109 62.3436 49.0512L62.8381 49.9205L63.3325 50.7897C65.1582 49.7512 66.5908 48.2488 67.6285 46.3134L66.7472 45.8409ZM62.8381 49.9205L62.345 49.0505C60.8642 49.8898 59.1882 50.3182 57.2926 50.3182V51.3182V52.3182C59.5031 52.3182 61.524 51.8147 63.3312 50.7904L62.8381 49.9205ZM57.2926 51.3182V50.3182C55.3819 50.3182 53.6997 49.8861 52.2206 49.0408L51.7244 49.9091L51.2283 50.7773C53.0371 51.8109 55.0669 52.3182 57.2926 52.3182V51.3182ZM51.7244 49.9091L52.2206 49.0408C50.7506 48.2009 49.5801 46.9834 48.708 45.357L47.8267 45.8295L46.9454 46.3021C47.9824 48.2363 49.4103 49.7385 51.2283 50.7773L51.7244 49.9091ZM47.8267 45.8295L48.708 45.357C47.8487 43.7542 47.3949 41.7699 47.3949 39.3636H46.3949H45.3949C45.3949 42.018 45.8957 44.3443 46.9454 46.3021L47.8267 45.8295ZM46.3949 39.3636H47.3949C47.3949 36.9492 47.8489 34.9613 48.708 33.3589L47.8267 32.8864L46.9454 32.4138C45.8955 34.372 45.3949 36.7023 45.3949 39.3636H46.3949ZM47.8267 32.8864L48.708 33.3589C49.5797 31.7331 50.7494 30.5203 52.2175 29.6881L51.7244 28.8182L51.2313 27.9482C49.4116 28.9797 47.9828 30.479 46.9454 32.4138L47.8267 32.8864ZM51.7244 28.8182L52.2206 29.6864C53.6997 28.8412 55.3819 28.4091 57.2926 28.4091V27.4091V26.4091C55.0669 26.4091 53.0371 26.9164 51.2283 27.9499L51.7244 28.8182ZM57.2926 27.4091V28.4091C59.1867 28.4091 60.8617 28.8406 62.3419 29.6864L62.8381 28.8182L63.3342 27.9499C61.5266 26.917 59.5046 26.4091 57.2926 26.4091V27.4091ZM62.8381 28.8182L62.3467 29.6891C63.8222 30.5216 64.9948 31.7343 65.8658 33.3589L66.7472 32.8864L67.6285 32.4138C66.5905 30.4779 65.157 28.9784 63.3295 27.9472L62.8381 28.8182ZM66.7472 32.8864L65.8674 33.3618C66.733 34.9635 67.1903 36.9504 67.1903 39.3636H68.1903H69.1903C69.1903 36.7012 68.6855 34.3698 67.6269 32.4109L66.7472 32.8864ZM63.2017 39.3636H64.2017C64.2017 37.6258 63.9422 36.0943 63.3796 34.8047L62.4631 35.2045L61.5465 35.6044C61.9688 36.5724 62.2017 37.8136 62.2017 39.3636H63.2017ZM62.4631 35.2045L63.3819 34.8099C62.8323 33.5303 62.0304 32.5081 60.956 31.801L60.4062 32.6364L59.8565 33.4717C60.5548 33.9313 61.1242 34.6212 61.5442 35.5992L62.4631 35.2045ZM60.4062 32.6364L60.956 31.801C59.8871 31.0976 58.653 30.7614 57.2926 30.7614V31.7614V32.7614C58.311 32.7614 59.1526 33.0085 59.8565 33.4717L60.4062 32.6364ZM57.2926 31.7614V30.7614C55.9323 30.7614 54.6981 31.0976 53.6292 31.801L54.179 32.6364L54.7287 33.4717C55.4326 33.0085 56.2742 32.7614 57.2926 32.7614V31.7614ZM54.179 32.6364L53.6292 31.801C52.5563 32.5072 51.7514 33.5275 51.1942 34.8047L52.1108 35.2045L53.0274 35.6044C53.455 34.6241 54.0289 33.9322 54.7287 33.4717L54.179 32.6364ZM52.1108 35.2045L51.192 34.8099C50.6387 36.0979 50.3835 37.6274 50.3835 39.3636H51.3835H52.3835C52.3835 37.812 52.6131 36.5688 53.0296 35.5992L52.1108 35.2045ZM51.3835 39.3636H50.3835C50.3835 41.0999 50.6387 42.6294 51.192 43.9174L52.1108 43.5227L53.0296 43.1281C52.6131 42.1585 52.3835 40.9153 52.3835 39.3636H51.3835ZM52.1108 43.5227L51.1942 43.9226C51.7514 45.1998 52.5563 46.2201 53.6292 46.9262L54.179 46.0909L54.7287 45.2556C54.0289 44.795 53.455 44.1032 53.0274 43.1229L52.1108 43.5227ZM54.179 46.0909L53.6292 46.9262C54.6981 47.6297 55.9323 47.9659 57.2926 47.9659V46.9659V45.9659C56.2742 45.9659 55.4326 45.7188 54.7287 45.2556L54.179 46.0909ZM57.2926 46.9659V47.9659C58.653 47.9659 59.8871 47.6297 60.956 46.9262L60.4062 46.0909L59.8565 45.2556C59.1526 45.7188 58.311 45.9659 57.2926 45.9659V46.9659ZM60.4062 46.0909L60.956 46.9262C62.0304 46.2191 62.8323 45.1969 63.3819 43.9174L62.4631 43.5227L61.5442 43.1281C61.1242 44.1061 60.5548 44.796 59.8565 45.2556L60.4062 46.0909ZM62.4631 43.5227L63.3796 43.9226C63.9422 42.633 64.2017 41.1015 64.2017 39.3636H63.2017H62.2017C62.2017 40.9136 61.9688 42.1549 61.5465 43.1229L62.4631 43.5227ZM86.2102 27.7273V26.7273H85.2102V27.7273H86.2102ZM91.1307 27.7273H92.1307V26.7273H91.1307V27.7273ZM89.9148 47.2955L89.0713 46.7582L89.069 46.7618L89.9148 47.2955ZM86.5398 50.2727L86.9776 51.1718L86.9813 51.17L86.5398 50.2727ZM76.4148 50.2727L75.9732 51.17L75.977 51.1718L76.4148 50.2727ZM73.0398 47.2955L72.194 47.8291L72.194 47.8291L73.0398 47.2955ZM71.8352 27.7273V26.7273H70.8352V27.7273H71.8352ZM76.7557 27.7273H77.7557V26.7273H76.7557V27.7273ZM77.3352 44.7841L76.4629 45.273L76.467 45.2802L77.3352 44.7841ZM78.9943 46.4091L78.5103 47.2841L78.5103 47.2841L78.9943 46.4091ZM83.9716 46.4091L83.4875 45.534L83.4836 45.5363L83.9716 46.4091ZM85.6193 44.7841L84.751 44.2879L84.747 44.2952L85.6193 44.7841ZM86.2102 27.7273V28.7273H91.1307V27.7273V26.7273H86.2102V27.7273ZM91.1307 27.7273H90.1307V42.8409H91.1307H92.1307V27.7273H91.1307ZM91.1307 42.8409H90.1307C90.1307 44.372 89.7673 45.6655 89.0713 46.7583L89.9148 47.2955L90.7582 47.8327C91.6834 46.38 92.1307 44.7038 92.1307 42.8409H91.1307ZM89.9148 47.2955L89.069 46.7618C88.3717 47.8671 87.3918 48.7389 86.0982 49.3755L86.5398 50.2727L86.9813 51.17C88.5817 50.3824 89.8518 49.2692 90.7605 47.8291L89.9148 47.2955ZM86.5398 50.2727L86.102 49.3736C84.8156 50 83.2849 50.3295 81.483 50.3295V51.3295V52.3295C83.5295 52.3295 85.3701 51.9545 86.9775 51.1718L86.5398 50.2727ZM81.483 51.3295V50.3295C79.6728 50.3295 78.1385 49.9998 76.8525 49.3736L76.4148 50.2727L75.977 51.1718C77.585 51.9548 79.4295 52.3295 81.483 52.3295V51.3295ZM76.4148 50.2727L76.8563 49.3755C75.5627 48.7389 74.5829 47.8671 73.8855 46.7618L73.0398 47.2955L72.194 47.8291C73.1027 49.2692 74.3729 50.3824 75.9732 51.17L76.4148 50.2727ZM73.0398 47.2955L73.8855 46.7618C73.1957 45.6686 72.8352 44.3738 72.8352 42.8409H71.8352H70.8352C70.8352 44.702 71.2778 46.3769 72.194 47.8291L73.0398 47.2955ZM71.8352 42.8409H72.8352V27.7273H71.8352H70.8352V42.8409H71.8352ZM71.8352 27.7273V28.7273H76.7557V27.7273V26.7273H71.8352V27.7273ZM76.7557 27.7273H75.7557V42.4205H76.7557H77.7557V27.7273H76.7557ZM76.7557 42.4205H75.7557C75.7557 43.4568 75.983 44.4168 76.4629 45.273L77.3352 44.7841L78.2076 44.2952C77.9147 43.7726 77.7557 43.1568 77.7557 42.4205H76.7557ZM77.3352 44.7841L76.467 45.2802C76.9542 46.1329 77.642 46.8038 78.5103 47.2841L78.9943 46.4091L79.4784 45.5341C78.9224 45.2265 78.5041 44.8141 78.2035 44.288L77.3352 44.7841ZM78.9943 46.4091L78.5103 47.2841C79.3932 47.7725 80.3945 48 81.483 48V47V46C80.6774 46 80.0197 45.8335 79.4784 45.5341L78.9943 46.4091ZM81.483 47V48C82.5771 48 83.5808 47.7733 84.4596 47.2819L83.9716 46.4091L83.4836 45.5363C82.9533 45.8328 82.2979 46 81.483 46V47ZM83.9716 46.4091L84.4557 47.2841C85.3255 46.8029 86.0115 46.1297 86.4917 45.273L85.6193 44.7841L84.747 44.2952C84.4544 44.8172 84.0419 45.2274 83.4875 45.5341L83.9716 46.4091ZM85.6193 44.7841L86.4876 45.2802C86.9776 44.4227 87.2102 43.4602 87.2102 42.4205H86.2102H85.2102C85.2102 43.1535 85.049 43.7667 84.7511 44.288L85.6193 44.7841ZM86.2102 42.4205H87.2102V27.7273H86.2102H85.2102V42.4205H86.2102ZM95.179 51H94.179V52H95.179V51ZM95.179 27.7273V26.7273H94.179V27.7273H95.179ZM108.861 28.6705L108.409 29.5627L108.416 29.566L108.861 28.6705ZM111.713 31.3182L110.844 31.8131L110.848 31.8199L111.713 31.3182ZM111.702 39.3182L112.558 39.8344L112.56 39.8318L111.702 39.3182ZM108.804 41.8636L108.381 40.9576L108.379 40.9586L108.804 41.8636ZM98.0881 42.75H97.0881V43.75H98.0881V42.75ZM98.0881 38.7955V37.7955H97.0881V38.7955H98.0881ZM105.781 38.4091L106.164 39.3328L106.164 39.3328L105.781 38.4091ZM107.168 37.25L106.311 36.7336L106.306 36.743L107.168 37.25ZM107.168 33.375L106.299 33.8712L106.305 33.8804L107.168 33.375ZM105.77 32.1705L105.359 33.082L105.365 33.085L105.372 33.0879L105.77 32.1705ZM100.099 31.75V30.75H99.0994V31.75H100.099ZM100.099 51V52H101.099V51H100.099ZM107.747 40.4091L108.625 39.9298L108.34 39.4091H107.747V40.4091ZM113.531 51V52H115.217L114.409 50.5207L113.531 51ZM108.099 51L107.217 51.4713L107.5 52H108.099V51ZM102.44 40.4091V39.4091H100.772L101.558 40.8804L102.44 40.4091ZM95.179 51H96.179V27.7273H95.179H94.179V51H95.179ZM95.179 27.7273V28.7273H104.361V27.7273V26.7273H95.179V27.7273ZM104.361 27.7273V28.7273C106.002 28.7273 107.339 29.0209 108.409 29.5627L108.861 28.6705L109.312 27.7782C107.898 27.0625 106.235 26.7273 104.361 26.7273V27.7273ZM108.861 28.6705L108.416 29.566C109.499 30.1043 110.297 30.8525 110.844 31.8131L111.713 31.3182L112.582 30.8233C111.826 29.496 110.723 28.479 109.306 27.7749L108.861 28.6705ZM111.713 31.3182L110.848 31.8199C111.405 32.7796 111.702 33.9375 111.702 35.3295H112.702H113.702C113.702 33.6458 113.34 32.1295 112.578 30.8165L111.713 31.3182ZM112.702 35.3295H111.702C111.702 36.7288 111.401 37.8734 110.844 38.8045L111.702 39.3182L112.56 39.8318C113.336 38.5357 113.702 37.0212 113.702 35.3295H112.702ZM111.702 39.3182L110.845 38.802C110.289 39.724 109.481 40.4436 108.381 40.9576L108.804 41.8636L109.227 42.7697C110.657 42.1019 111.781 41.1245 112.558 39.8344L111.702 39.3182ZM108.804 41.8636L108.379 40.9586C107.287 41.4717 105.917 41.75 104.236 41.75V42.75V43.75C106.13 43.75 107.806 43.4374 109.229 42.7687L108.804 41.8636ZM104.236 42.75V41.75H98.0881V42.75V43.75H104.236V42.75ZM98.0881 42.75H99.0881V38.7955H98.0881H97.0881V42.75H98.0881ZM98.0881 38.7955V39.7955H103.44V38.7955V37.7955H98.0881V38.7955ZM103.44 38.7955V39.7955C104.463 39.7955 105.384 39.6565 106.164 39.3328L105.781 38.4091L105.398 37.4853C104.936 37.6768 104.297 37.7955 103.44 37.7955V38.7955ZM105.781 38.4091L106.164 39.3328C106.96 39.003 107.603 38.4826 108.03 37.757L107.168 37.25L106.306 36.743C106.126 37.0477 105.845 37.3 105.398 37.4853L105.781 38.4091ZM107.168 37.25L108.024 37.7663C108.451 37.0583 108.634 36.2279 108.634 35.3295H107.634H106.634C106.634 35.9615 106.506 36.4114 106.311 36.7337L107.168 37.25ZM107.634 35.3295H108.634C108.634 34.4243 108.451 33.5879 108.03 32.8696L107.168 33.375L106.305 33.8804C106.505 34.2227 106.634 34.6893 106.634 35.3295H107.634ZM107.168 33.375L108.036 32.8789C107.613 32.1383 106.969 31.6007 106.168 31.253L105.77 32.1705L105.372 33.0879C105.828 33.2857 106.116 33.5511 106.299 33.8711L107.168 33.375ZM105.77 32.1705L106.181 31.2589C105.391 30.9023 104.455 30.75 103.418 30.75V31.75V32.75C104.274 32.75 104.907 32.878 105.359 33.082L105.77 32.1705ZM103.418 31.75V30.75H100.099V31.75V32.75H103.418V31.75ZM100.099 31.75H99.0994V51H100.099H101.099V31.75H100.099ZM100.099 51V50H95.179V51V52H100.099V51ZM107.747 40.4091L106.87 40.8884L112.654 51.4793L113.531 51L114.409 50.5207L108.625 39.9298L107.747 40.4091ZM113.531 51V50H108.099V51V52H113.531V51ZM108.099 51L108.981 50.5287L103.322 39.9378L102.44 40.4091L101.558 40.8804L107.217 51.4713L108.099 51ZM102.44 40.4091V41.4091H107.747V40.4091V39.4091H102.44V40.4091ZM123.585 51H122.585V52H123.585V51ZM123.585 27.7273V26.7273H122.585V27.7273H123.585ZM137.188 28.4886L136.782 29.4027L136.782 29.4027L137.188 28.4886ZM139.767 30.6023L138.924 31.1405L138.926 31.1437L139.767 30.6023ZM140.085 36.0909L140.968 36.5615L140.97 36.5575L140.085 36.0909ZM138.585 37.7727L139.151 38.5971L139.153 38.5956L138.585 37.7727ZM136.426 38.6932L136.207 37.7174L135.426 37.8926V38.6932H136.426ZM136.426 38.9205H135.426V39.8786L136.383 39.9195L136.426 38.9205ZM138.915 39.6705L138.402 40.5287L138.405 40.5309L138.915 39.6705ZM140.812 41.6136L139.948 42.1165L139.95 42.12L140.812 41.6136ZM140.619 47.875L139.774 47.3403L139.773 47.342L140.619 47.875ZM137.926 50.1591L137.5 49.2545L137.5 49.2545L137.926 50.1591ZM128.506 46.9773H127.506V47.9773H128.506V46.9773ZM135.517 46.1932L136.156 46.9622L136.162 46.9576L135.517 46.1932ZM135.994 42.375L135.149 42.9085L135.149 42.9085L135.994 42.375ZM134.665 41.2159L134.222 42.1127L134.227 42.115L134.665 41.2159ZM128.506 40.7955V39.7955H127.506V40.7955H128.506ZM128.506 37.4659H127.506V38.4659H128.506V37.4659ZM133.949 37.1136L134.359 38.0258L134.365 38.0231L133.949 37.1136ZM135.199 36.0909L134.382 35.5136L134.376 35.5232L135.199 36.0909ZM134.767 32.4773L134.11 33.2311L134.115 33.2352L134.767 32.4773ZM128.506 31.7045V30.7045H127.506V31.7045H128.506ZM123.585 51H124.585V27.7273H123.585H122.585V51H123.585ZM123.585 27.7273V28.7273H132.903V27.7273V26.7273H123.585V27.7273ZM132.903 27.7273V28.7273C134.524 28.7273 135.804 28.9686 136.782 29.4027L137.188 28.4886L137.593 27.5746C136.284 26.9936 134.707 26.7273 132.903 26.7273V27.7273ZM137.188 28.4886L136.782 29.4027C137.778 29.8445 138.471 30.4311 138.924 31.1405L139.767 30.6023L140.61 30.064C139.911 28.9705 138.885 28.1479 137.593 27.5746L137.188 28.4886ZM139.767 30.6023L138.926 31.1437C139.388 31.8607 139.631 32.6992 139.631 33.6932H140.631H141.631C141.631 32.3539 141.298 31.1317 140.608 30.0608L139.767 30.6023ZM140.631 33.6932H139.631C139.631 34.4668 139.477 35.101 139.201 35.6244L140.085 36.0909L140.97 36.5575C141.421 35.702 141.631 34.7378 141.631 33.6932H140.631ZM140.085 36.0909L139.203 35.6203C138.914 36.1612 138.522 36.601 138.017 36.9498L138.585 37.7727L139.153 38.5956C139.921 38.0656 140.529 37.3843 140.968 36.5615L140.085 36.0909ZM138.585 37.7727L138.019 36.9484C137.504 37.3019 136.905 37.561 136.207 37.7174L136.426 38.6932L136.645 39.6689C137.569 39.4617 138.408 39.1072 139.151 38.5971L138.585 37.7727ZM136.426 38.6932H135.426V38.9205H136.426H137.426V38.6932H136.426ZM136.426 38.9205L136.383 39.9195C137.101 39.9502 137.769 40.1506 138.402 40.5287L138.915 39.6705L139.428 38.8122C138.515 38.2661 137.524 37.9665 136.469 37.9214L136.426 38.9205ZM138.915 39.6705L138.405 40.5309C139.029 40.9005 139.544 41.4211 139.948 42.1165L140.812 41.6136L141.677 41.1107C141.112 40.1395 140.361 39.3646 139.424 38.81L138.915 39.6705ZM140.812 41.6136L139.95 42.12C140.329 42.7648 140.54 43.5675 140.54 44.5682H141.54H142.54C142.54 43.281 142.266 42.114 141.675 41.1073L140.812 41.6136ZM141.54 44.5682H140.54C140.54 45.6287 140.279 46.5428 139.774 47.3403L140.619 47.875L141.464 48.4097C142.187 47.2678 142.54 45.9773 142.54 44.5682H141.54ZM140.619 47.875L139.773 47.342C139.284 48.1188 138.544 48.7622 137.5 49.2545L137.926 50.1591L138.352 51.0636C139.687 50.4347 140.743 49.5554 141.465 48.408L140.619 47.875ZM137.926 50.1591L137.5 49.2545C136.48 49.7353 135.169 50 133.528 50V51V52C135.373 52 136.994 51.7041 138.352 51.0636L137.926 50.1591ZM133.528 51V50H123.585V51V52H133.528V51ZM128.506 46.9773V47.9773H132.517V46.9773V45.9773H128.506V46.9773ZM132.517 46.9773V47.9773C133.976 47.9773 135.261 47.7062 136.156 46.9622L135.517 46.1932L134.878 45.4242C134.515 45.7256 133.8 45.9773 132.517 45.9773V46.9773ZM135.517 46.1932L136.162 46.9576C137.033 46.223 137.46 45.2301 137.46 44.0795H136.46H135.46C135.46 44.6866 135.259 45.1028 134.872 45.4287L135.517 46.1932ZM136.46 44.0795H137.46C137.46 43.2675 137.262 42.5103 136.84 41.8415L135.994 42.375L135.149 42.9085C135.348 43.2246 135.46 43.6037 135.46 44.0795H136.46ZM135.994 42.375L136.84 41.8415C136.42 41.1761 135.828 40.6702 135.102 40.3168L134.665 41.2159L134.227 42.115C134.653 42.3222 134.947 42.5891 135.149 42.9085L135.994 42.375ZM134.665 41.2159L135.107 40.3191C134.372 39.9564 133.535 39.7955 132.631 39.7955V40.7955V41.7955C133.302 41.7955 133.821 41.9148 134.222 42.1127L134.665 41.2159ZM132.631 40.7955V39.7955H128.506V40.7955V41.7955H132.631V40.7955ZM128.506 40.7955H127.506V46.9773H128.506H129.506V40.7955H128.506ZM128.506 37.4659V38.4659H132.153V37.4659V36.4659H128.506V37.4659ZM132.153 37.4659V38.4659C132.944 38.4659 133.686 38.3279 134.359 38.0258L133.949 37.1136L133.539 36.2015C133.166 36.3691 132.711 36.4659 132.153 36.4659V37.4659ZM133.949 37.1136L134.365 38.0231C135.043 37.7128 135.607 37.2602 136.022 36.6586L135.199 36.0909L134.376 35.5232C134.184 35.8004 133.915 36.0296 133.533 36.2042L133.949 37.1136ZM135.199 36.0909L136.015 36.6681C136.462 36.0369 136.665 35.3016 136.665 34.5114H135.665H134.665C134.665 34.9484 134.557 35.2661 134.382 35.5137L135.199 36.0909ZM135.665 34.5114H136.665C136.665 33.4007 136.254 32.4381 135.419 31.7194L134.767 32.4773L134.115 33.2352C134.477 33.5468 134.665 33.9402 134.665 34.5114H135.665ZM134.767 32.4773L135.424 31.7235C134.591 30.997 133.483 30.7045 132.244 30.7045V31.7045V32.7045C133.188 32.7045 133.761 32.9273 134.11 33.231L134.767 32.4773ZM132.244 31.7045V30.7045H128.506V31.7045V32.7045H132.244V31.7045ZM128.506 31.7045H127.506V37.4659H128.506H129.506V31.7045H128.506ZM144.741 51H143.741V52H144.741V51ZM144.741 27.7273V26.7273H143.741V27.7273H144.741ZM158.423 28.6705L157.972 29.5627L157.978 29.566L158.423 28.6705ZM161.276 31.3182L160.407 31.8131L160.411 31.8199L161.276 31.3182ZM161.264 39.3182L162.121 39.8344L162.122 39.8318L161.264 39.3182ZM158.366 41.8636L157.943 40.9576L157.941 40.9586L158.366 41.8636ZM147.651 42.75H146.651V43.75H147.651V42.75ZM147.651 38.7955V37.7955H146.651V38.7955H147.651ZM155.344 38.4091L155.727 39.3328L155.727 39.3328L155.344 38.4091ZM156.73 37.25L155.874 36.7336L155.868 36.743L156.73 37.25ZM156.73 33.375L155.862 33.8712L155.867 33.8804L156.73 33.375ZM155.332 32.1705L154.921 33.082L154.928 33.085L154.934 33.0879L155.332 32.1705ZM149.662 31.75V30.75H148.662V31.75H149.662ZM149.662 51V52H150.662V51H149.662ZM157.31 40.4091L158.187 39.9298L157.903 39.4091H157.31V40.4091ZM163.094 51V52H164.779L163.971 50.5207L163.094 51ZM157.662 51L156.78 51.4713L157.062 52H157.662V51ZM152.003 40.4091V39.4091H150.335L151.121 40.8804L152.003 40.4091ZM144.741 51H145.741V27.7273H144.741H143.741V51H144.741ZM144.741 27.7273V28.7273H153.923V27.7273V26.7273H144.741V27.7273ZM153.923 27.7273V28.7273C155.564 28.7273 156.901 29.0209 157.972 29.5627L158.423 28.6705L158.875 27.7782C157.461 27.0625 155.798 26.7273 153.923 26.7273V27.7273ZM158.423 28.6705L157.978 29.566C159.062 30.1043 159.86 30.8525 160.407 31.8131L161.276 31.3182L162.145 30.8233C161.389 29.496 160.285 28.479 158.868 27.7749L158.423 28.6705ZM161.276 31.3182L160.411 31.8199C160.967 32.7796 161.264 33.9375 161.264 35.3295H162.264H163.264C163.264 33.6458 162.902 32.1295 162.141 30.8165L161.276 31.3182ZM162.264 35.3295H161.264C161.264 36.7288 160.964 37.8734 160.406 38.8045L161.264 39.3182L162.122 39.8318C162.898 38.5357 163.264 37.0212 163.264 35.3295H162.264ZM161.264 39.3182L160.408 38.802C159.852 39.724 159.044 40.4436 157.943 40.9576L158.366 41.8636L158.79 42.7697C160.219 42.1019 161.343 41.1245 162.121 39.8344L161.264 39.3182ZM158.366 41.8636L157.941 40.9586C156.849 41.4717 155.48 41.75 153.798 41.75V42.75V43.75C155.693 43.75 157.369 43.4374 158.792 42.7687L158.366 41.8636ZM153.798 42.75V41.75H147.651V42.75V43.75H153.798V42.75ZM147.651 42.75H148.651V38.7955H147.651H146.651V42.75H147.651ZM147.651 38.7955V39.7955H153.003V38.7955V37.7955H147.651V38.7955ZM153.003 38.7955V39.7955C154.025 39.7955 154.946 39.6565 155.727 39.3328L155.344 38.4091L154.961 37.4853C154.499 37.6768 153.859 37.7955 153.003 37.7955V38.7955ZM155.344 38.4091L155.727 39.3328C156.522 39.003 157.165 38.4826 157.592 37.757L156.73 37.25L155.868 36.743C155.689 37.0477 155.408 37.3 154.961 37.4853L155.344 38.4091ZM156.73 37.25L157.586 37.7663C158.013 37.0583 158.196 36.2279 158.196 35.3295H157.196H156.196C156.196 35.9615 156.068 36.4114 155.874 36.7337L156.73 37.25ZM157.196 35.3295H158.196C158.196 34.4243 158.014 33.5879 157.593 32.8696L156.73 33.375L155.867 33.8804C156.068 34.2227 156.196 34.6893 156.196 35.3295H157.196ZM156.73 33.375L157.598 32.8789C157.175 32.1383 156.532 31.6007 155.73 31.253L155.332 32.1705L154.934 33.0879C155.39 33.2857 155.679 33.5511 155.862 33.8711L156.73 33.375ZM155.332 32.1705L155.744 31.2589C154.953 30.9023 154.017 30.75 152.98 30.75V31.75V32.75C153.837 32.75 154.469 32.878 154.921 33.082L155.332 32.1705ZM152.98 31.75V30.75H149.662V31.75V32.75H152.98V31.75ZM149.662 31.75H148.662V51H149.662H150.662V31.75H149.662ZM149.662 51V50H144.741V51V52H149.662V51ZM157.31 40.4091L156.432 40.8884L162.216 51.4793L163.094 51L163.971 50.5207L158.187 39.9298L157.31 40.4091ZM163.094 51V50H157.662V51V52H163.094V51ZM157.662 51L158.544 50.5287L152.885 39.9378L152.003 40.4091L151.121 40.8804L156.78 51.4713L157.662 51ZM152.003 40.4091V41.4091H157.31V40.4091V39.4091H152.003V40.4091ZM169.753 51V52H170.479L170.704 51.3094L169.753 51ZM164.48 51L163.535 50.6737L163.077 52H164.48V51ZM172.514 27.7273V26.7273H171.802L171.569 27.401L172.514 27.7273ZM178.855 27.7273L179.801 27.4014L179.568 26.7273H178.855V27.7273ZM186.878 51V52H188.28L187.823 50.6741L186.878 51ZM181.605 51L180.654 51.3088L180.878 52H181.605V51ZM175.776 33.0455L176.727 32.7366L176.502 32.0455H175.776V33.0455ZM175.594 33.0455V32.0455H174.867L174.643 32.7361L175.594 33.0455ZM169.423 41.8523V40.8523H168.423V41.8523H169.423ZM181.878 41.8523H182.878V40.8523H181.878V41.8523ZM181.878 45.6932V46.6932H182.878V45.6932H181.878ZM169.423 45.6932H168.423V46.6932H169.423V45.6932ZM169.753 51V50H164.48V51V52H169.753V51ZM164.48 51L165.425 51.3263L173.459 28.0536L172.514 27.7273L171.569 27.401L163.535 50.6737L164.48 51ZM172.514 27.7273V28.7273H178.855V27.7273V26.7273H172.514V27.7273ZM178.855 27.7273L177.91 28.0532L185.932 51.3259L186.878 51L187.823 50.6741L179.801 27.4014L178.855 27.7273ZM186.878 51V50H181.605V51V52H186.878V51ZM181.605 51L182.556 50.6912L176.727 32.7366L175.776 33.0455L174.824 33.3543L180.654 51.3088L181.605 51ZM175.776 33.0455V32.0455H175.594V33.0455V34.0455H175.776V33.0455ZM175.594 33.0455L174.643 32.7361L168.802 50.6906L169.753 51L170.704 51.3094L176.545 33.3548L175.594 33.0455ZM169.423 41.8523V42.8523H181.878V41.8523V40.8523H169.423V41.8523ZM181.878 41.8523H180.878V45.6932H181.878H182.878V41.8523H181.878ZM181.878 45.6932V44.6932H169.423V45.6932V46.6932H181.878V45.6932ZM169.423 45.6932H170.423V41.8523H169.423H168.423V45.6932H169.423ZM209.145 27.7273H210.145V26.7273H209.145V27.7273ZM209.145 51V52H210.145V51H209.145ZM204.895 51L204.072 51.5686L204.37 52H204.895V51ZM194.77 36.3523L195.592 35.7837L195.294 35.3523H194.77V36.3523ZM194.599 36.3523V35.3523H193.599V36.3523H194.599ZM194.599 51V52H195.599V51H194.599ZM189.679 51H188.679V52H189.679V51ZM189.679 27.7273V26.7273H188.679V27.7273H189.679ZM193.997 27.7273L194.822 27.1614L194.524 26.7273H193.997V27.7273ZM204.043 42.3636L203.218 42.9295L203.516 43.3636H204.043V42.3636ZM204.247 42.3636V43.3636H205.247V42.3636H204.247ZM204.247 27.7273V26.7273H203.247V27.7273H204.247ZM209.145 27.7273H208.145V51H209.145H210.145V27.7273H209.145ZM209.145 51V50H204.895V51V52H209.145V51ZM204.895 51L205.717 50.4314L195.592 35.7837L194.77 36.3523L193.947 36.9209L204.072 51.5686L204.895 51ZM194.77 36.3523V35.3523H194.599V36.3523V37.3523H194.77V36.3523ZM194.599 36.3523H193.599V51H194.599H195.599V36.3523H194.599ZM194.599 51V50H189.679V51V52H194.599V51ZM189.679 51H190.679V27.7273H189.679H188.679V51H189.679ZM189.679 27.7273V28.7273H193.997V27.7273V26.7273H189.679V27.7273ZM193.997 27.7273L193.173 28.2931L203.218 42.9295L204.043 42.3636L204.867 41.7978L194.822 27.1614L193.997 27.7273ZM204.043 42.3636V43.3636H204.247V42.3636V41.3636H204.043V42.3636ZM204.247 42.3636H205.247V27.7273H204.247H203.247V42.3636H204.247ZM204.247 27.7273V28.7273H209.145V27.7273V26.7273H204.247V27.7273ZM213.21 51H212.21V52H213.21V51ZM213.21 27.7273V26.7273H212.21V27.7273H213.21ZM227.574 29.125L227.091 30.0006L227.094 30.0023L227.574 29.125ZM231.472 33.1136L230.586 33.5778L230.587 33.5808L231.472 33.1136ZM231.472 45.5909L230.587 45.1253L230.585 45.1283L231.472 45.5909ZM227.551 49.6023L227.071 48.7248L227.07 48.7257L227.551 49.6023ZM218.131 46.7841H217.131V47.7841H218.131V46.7841ZM224.926 46.0114L225.387 46.8989L225.389 46.8976L224.926 46.0114ZM227.176 43.5909L226.268 43.1715L226.267 43.1743L227.176 43.5909ZM227.176 35.125L226.267 35.5417L226.269 35.5469L227.176 35.125ZM224.938 32.7159L225.398 31.8284L225.398 31.8284L224.938 32.7159ZM218.131 31.9432V30.9432H217.131V31.9432H218.131ZM221.46 51V50H213.21V51V52H221.46V51ZM213.21 51H214.21V27.7273H213.21H212.21V51H213.21ZM213.21 27.7273V28.7273H221.528V27.7273V26.7273H213.21V27.7273ZM221.528 27.7273V28.7273C223.736 28.7273 225.578 29.1661 227.091 30.0006L227.574 29.125L228.057 28.2494C226.191 27.2203 224.002 26.7273 221.528 26.7273V27.7273ZM227.574 29.125L227.094 30.0023C228.607 30.8302 229.767 32.0145 230.586 33.5778L231.472 33.1136L232.357 32.6495C231.358 30.7431 229.919 29.2683 228.054 28.2477L227.574 29.125ZM231.472 33.1136L230.587 33.5808C231.412 35.1421 231.847 37.0499 231.847 39.3409H232.847H233.847C233.847 36.7986 233.364 34.5549 232.356 32.6465L231.472 33.1136ZM232.847 39.3409H231.847C231.847 41.6399 231.412 43.556 230.587 45.1253L231.472 45.5909L232.357 46.0565C233.364 44.141 233.847 41.8904 233.847 39.3409H232.847ZM231.472 45.5909L230.585 45.1283C229.766 46.6974 228.6 47.8891 227.071 48.7248L227.551 49.6023L228.031 50.4797C229.911 49.4518 231.359 47.9692 232.358 46.0535L231.472 45.5909ZM227.551 49.6023L227.07 48.7257C225.55 49.5605 223.692 50 221.46 50V51V52C223.955 52 226.159 51.5077 228.032 50.4788L227.551 49.6023ZM218.131 46.7841V47.7841H221.256V46.7841V45.7841H218.131V46.7841ZM221.256 46.7841V47.7841C222.824 47.7841 224.216 47.5068 225.387 46.8989L224.926 46.0114L224.465 45.1238C223.652 45.5462 222.597 45.7841 221.256 45.7841V46.7841ZM224.926 46.0114L225.389 46.8976C226.599 46.2653 227.499 45.2864 228.085 44.0076L227.176 43.5909L226.267 43.1743C225.853 44.0772 225.253 44.7119 224.463 45.1251L224.926 46.0114ZM227.176 43.5909L228.084 44.0104C228.673 42.7362 228.938 41.1624 228.938 39.3409H227.938H226.938C226.938 40.9891 226.695 42.2487 226.268 43.1715L227.176 43.5909ZM227.938 39.3409H228.938C228.938 37.5335 228.672 35.9703 228.083 34.7031L227.176 35.125L226.269 35.5469C226.695 36.4615 226.938 37.7089 226.938 39.3409H227.938ZM227.176 35.125L228.085 34.7083C227.5 33.4307 226.603 32.4539 225.398 31.8284L224.938 32.7159L224.477 33.6035C225.257 34.0082 225.853 34.6374 226.267 35.5417L227.176 35.125ZM224.938 32.7159L225.398 31.8284C224.227 31.2205 222.835 30.9432 221.267 30.9432V31.9432V32.9432C222.608 32.9432 223.663 33.181 224.477 33.6035L224.938 32.7159ZM221.267 31.9432V30.9432H218.131V31.9432V32.9432H221.267V31.9432ZM218.131 31.9432H217.131V46.7841H218.131H219.131V31.9432H218.131Z" fill="white" mask="url(#path-2-outside-1_1_5)"/>
</svg>
