<svg width="786" height="146" viewBox="0 0 786 146" fill="none" xmlns="http://www.w3.org/2000/svg">
<path d="M63.7271 104.812C57.5122 107.92 50.9194 109.474 43.9487 109.474C37.02 109.474 30.9102 108.508 25.6191 106.576C20.3281 104.645 15.793 101.873 12.0137 98.2617C4.03516 90.6191 0.0458984 80.394 0.0458984 67.5864C0.0458984 57.8862 2.85938 48.7739 8.48633 40.2495C13.8613 32.103 20.916 25.6362 29.6504 20.8491C38.6367 15.936 47.917 13.4795 57.4912 13.4795C68.9551 13.4795 78.8232 17.2798 87.0957 24.8804C95.5781 32.6909 99.8193 42.2861 99.8193 53.666C99.8193 65.9697 95.0952 77.3706 85.647 87.8687C82.7915 91.0181 79.7051 93.8945 76.3877 96.498C79.4531 98.6396 82.6865 100.907 86.0879 103.301C89.4893 105.652 93.0166 107.836 96.6699 109.852C105.068 114.513 112.627 116.843 119.346 116.843C123.041 116.843 127.702 115.688 133.329 113.379C127.786 118.922 121.298 122.638 113.866 124.528C111.388 125.158 108.764 125.473 105.992 125.473C100.701 125.473 95.4521 124.066 90.2451 121.252C83.1904 117.515 74.3511 112.035 63.7271 104.812ZM87.5366 62.6733C87.5366 57.0044 86.4238 51.6504 84.1982 46.6113C82.0146 41.5303 78.9912 37.1841 75.1279 33.5728C67.0654 26.0562 56.9033 22.2979 44.6416 22.2979C27.8027 22.2979 17.5986 29.3315 14.0293 43.3989C12.8955 47.8501 12.3286 53.0991 12.3286 59.146C12.3286 65.1509 13.3784 70.7778 15.478 76.0269C17.5776 81.2759 20.5381 85.769 24.3594 89.5063C32.3799 97.2749 42.7939 101.159 55.6016 101.159C66.2256 101.159 74.3301 97.4219 79.915 89.9473C84.9961 83.1865 87.5366 74.0952 87.5366 62.6733Z" fill="black"/>
</svg>
