<svg width="786" height="146" viewBox="0 0 786 146" fill="none" xmlns="http://www.w3.org/2000/svg">
<path d="M145.11 54.7368C151.871 48.6479 156.826 45.6035 159.976 45.6035C163.125 45.6035 164.7 47.6191 164.7 51.6504V91.6479C164.7 94.1675 165.267 96.0571 166.4 97.3169C167.534 98.5767 169.424 99.2065 172.069 99.2065C173.917 99.2065 175.723 98.8706 177.486 98.1987C176.101 98.7026 174.841 99.5005 173.707 100.592C172.615 101.642 171.439 102.713 170.18 103.805C167.03 106.534 163.44 107.899 159.409 107.899C155.545 107.899 153.341 105.757 152.795 101.474C152.669 100.256 152.585 99.0176 152.543 97.7578C143.389 104.687 135.263 108.151 128.167 108.151C123.379 108.151 119.768 106.051 117.333 101.852C115.149 98.0728 114.057 92.9077 114.057 86.3569V65.1299C114.057 61.4766 113.742 58.999 113.112 57.6973C111.937 55.0938 109.816 53.792 106.75 53.792C105.281 53.792 103.79 54.1069 102.278 54.7368C107.401 50.1597 111.559 47.2622 114.75 46.0444C116.304 45.4146 117.92 45.0996 119.6 45.0996C124.177 45.0996 126.466 48.0181 126.466 53.855C126.466 53.855 126.466 55.2617 126.466 58.0752C126.466 58.0752 126.445 65.9067 126.403 81.5698C126.403 87.5747 127.516 91.9839 129.741 94.7974C132.177 97.9888 136.229 99.5845 141.898 99.5845C144.669 99.5845 147.546 98.3877 150.527 95.9941C151.283 95.4062 151.955 94.9023 152.543 94.4824V61.2246C152.543 58.1172 151.787 55.9756 150.275 54.7998C149.646 54.3379 148.869 54.1069 147.945 54.1069C147.021 54.1069 146.076 54.3169 145.11 54.7368Z" fill="black"/>
</svg>
