<svg width="786" height="146" viewBox="0 0 786 146" fill="none" xmlns="http://www.w3.org/2000/svg">
<path d="M197.456 0L197.834 7.18066V10.4561C197.834 12.4717 197.582 13.7104 197.078 14.1724C196.574 14.5923 196.028 15.0122 195.44 15.4321C193.089 17.1118 189.688 19.3794 185.236 22.2349C185.446 18.0356 185.551 15.873 185.551 15.7471C185.551 15.5791 185.446 13.1855 185.236 8.56641L197.456 0ZM210.621 99.1436C209.361 100.151 208.122 101.18 206.904 102.23C205.729 103.28 204.49 104.246 203.188 105.127C200.165 107.101 197.267 108.088 194.496 108.088C191.892 108.088 190.065 107.689 189.016 106.891C186.874 105.295 185.803 102.356 185.803 98.0728V68.2163C185.803 63.6812 184.984 60.7417 183.347 59.3979C182.591 58.7681 181.772 58.4531 180.89 58.4531C180.008 58.4531 179.252 58.5161 178.623 58.6421C178.035 58.7261 177.426 58.8311 176.796 58.957C176.166 59.083 175.515 59.209 174.843 59.335C176.943 57.6973 178.896 56.2275 180.701 54.9258C182.549 53.624 184.124 52.5322 185.425 51.6504C186.727 50.7686 188.533 49.5298 190.842 47.9341C193.152 46.2964 195.545 44.8267 198.023 43.5249V87.9946C198.023 92.2778 198.296 94.9863 198.842 96.1201C200.018 98.4297 202.621 99.5845 206.652 99.5845C207.744 99.5845 209.067 99.4375 210.621 99.1436Z" fill="black"/>
</svg>
