<svg width="786" height="146" viewBox="0 0 786 146" fill="none" xmlns="http://www.w3.org/2000/svg">
<path d="M219.819 102.608L219.882 62.1064C219.882 59.293 219.504 57.4033 218.749 56.4375C217.447 54.7578 215.641 53.918 213.332 53.918C211.022 53.918 208.964 54.2539 207.159 54.9258C208.25 54.5059 209.678 53.519 211.442 51.9653C214.675 48.9839 216.964 47.2412 218.308 46.7373C220.827 45.7295 223.032 45.2256 224.921 45.2256C226.853 45.2256 228.281 45.5405 229.205 46.1704C230.17 46.8003 230.863 47.6401 231.283 48.6899C231.829 49.9917 232.102 52.4692 232.102 56.1226C239.955 49.1938 247.303 45.7295 254.148 45.7295C257.885 45.7295 261.14 46.9053 263.911 49.2568C266.809 51.7764 268.257 54.8418 268.257 58.4531V89.5693C268.257 92.6768 268.593 94.8184 269.265 95.9941C270.525 98.2197 272.625 99.3325 275.564 99.3325C277.244 99.3325 278.839 99.0176 280.351 98.3877C276.614 101.621 274.031 103.7 272.604 104.624C269.328 106.765 266.452 107.836 263.974 107.836C261.539 107.836 259.796 107.395 258.746 106.513C257.738 105.631 257.024 104.519 256.604 103.175C256.143 101.705 255.912 98.7026 255.912 94.1675V70.6099C255.912 63.0933 253.455 58.1382 248.542 55.7446C246.778 54.9048 244.658 54.4849 242.18 54.4849C236.091 54.4849 232.795 58.999 232.291 68.0273C232.165 70.2949 232.102 72.3315 232.102 74.1372V93.6006C232.102 96.2881 232.921 98.1147 234.559 99.0806C235.146 99.4585 235.881 99.6475 236.763 99.6475C237.645 99.6475 238.569 99.4375 239.535 99.0176C238.653 99.7734 237.603 100.676 236.385 101.726C235.167 102.776 233.887 103.784 232.543 104.75C229.226 107.017 226.58 108.151 224.606 108.151C221.415 108.151 219.819 106.303 219.819 102.608Z" fill="black"/>
</svg>
