<svg width="786" height="146" viewBox="0 0 786 146" fill="none" xmlns="http://www.w3.org/2000/svg">
<path d="M329.863 95.2383C324.11 101.663 316.971 105.673 308.447 107.269C306.473 107.605 304.038 107.773 301.14 107.773C298.243 107.773 295.513 106.975 292.952 105.379C290.39 103.742 288.291 101.642 286.653 99.0806C283.545 94.1255 281.992 88.0786 281.992 80.9399C281.992 76.2368 283.797 71.0298 287.409 65.3188C290.936 59.6919 295.24 54.9888 300.321 51.2095C305.78 47.1782 310.945 45.1626 315.816 45.1626C318.336 45.1626 320.457 46.0864 322.178 47.9341C323.774 49.7397 324.572 51.7974 324.572 54.1069C324.572 56.4165 324.068 58.5581 323.06 60.5317C322.052 62.4634 320.729 64.353 319.092 66.2007C317.496 68.0483 315.648 69.833 313.549 71.5547C311.491 73.2344 309.371 74.8091 307.187 76.2788C304.122 78.3784 300.258 80.751 295.597 83.3965C296.941 88.4775 299.313 92.4038 302.715 95.1753C306.116 97.9048 310.504 99.2695 315.879 99.2695C320.415 99.2695 325.076 97.9258 329.863 95.2383ZM310.84 69.98C311.974 68.1743 312.541 66.4106 312.541 64.689C312.541 62.9673 312.352 61.5186 311.974 60.3428C311.596 59.125 311.05 58.0542 310.336 57.1304C308.699 55.0308 306.578 53.981 303.975 53.981C297.592 53.981 294.4 60.4897 294.4 73.5073C294.4 75.8169 294.589 78.1055 294.967 80.373C302.358 78.3154 307.649 74.8511 310.84 69.98Z" fill="black"/>
</svg>
