<svg width="786" height="146" viewBox="0 0 786 146" fill="none" xmlns="http://www.w3.org/2000/svg">
<path d="M408.414 30.8643C409.842 29.4365 410.556 28.4077 410.556 27.7778C410.556 27.106 410.241 26.5391 409.611 26.0771C409.023 25.6152 408.246 25.2163 407.28 24.8804C406.356 24.5444 405.307 24.2715 404.131 24.0615C402.997 23.8096 401.884 23.6206 400.792 23.4946C398.609 23.2427 396.74 23.1167 395.187 23.1167C393.675 23.1167 391.911 23.2637 389.896 23.5576C387.922 23.8516 386.095 24.4185 384.416 25.2583C380.594 27.1899 378.684 30.0664 378.684 33.8877C378.684 37.709 379.376 40.7744 380.762 43.084C382.19 45.3516 384.038 47.2412 386.305 48.7529C388.573 50.2646 391.155 51.5244 394.053 52.5322C396.992 53.54 399.995 54.4849 403.06 55.3667C406.125 56.2485 409.107 57.1934 412.004 58.2012C414.944 59.209 417.547 60.4897 419.815 62.0435C424.896 65.5288 427.437 70.3789 427.437 76.5938C427.437 82.6826 424.854 88.3306 419.689 93.5376C415.28 97.9888 409.422 101.642 402.115 104.498C395.522 107.101 389.203 108.403 383.156 108.403C379.418 108.403 376.017 107.962 372.952 107.08C369.928 106.198 367.787 105.421 366.527 104.75C363.587 103.28 362.118 101.537 362.118 99.5215C362.118 96.2881 366.926 92.0469 376.542 86.7979C375.282 88.1836 374.652 89.5273 374.652 90.8291C374.652 92.0889 375.051 93.1807 375.849 94.1045C376.689 94.9863 377.76 95.7632 379.062 96.4351C380.363 97.0649 381.812 97.5898 383.408 98.0098C385.045 98.4297 386.662 98.7656 388.258 99.0176C391.197 99.4795 393.864 99.7104 396.257 99.7104C398.651 99.7104 401.002 99.5005 403.312 99.0806C405.622 98.6187 407.679 97.8418 409.485 96.75C413.558 94.3145 415.595 90.4722 415.595 85.2231C415.595 77.0767 410.43 71.0298 400.1 67.0825C397.16 65.9907 394.137 64.9619 391.029 63.9961C387.964 62.9883 384.961 61.9595 382.022 60.9097C379.083 59.8599 376.479 58.6001 374.211 57.1304C369.088 53.771 366.527 49.3408 366.527 43.8398C366.527 39.2627 369.109 34.5386 374.274 29.6675C378.726 25.4683 384.332 21.8569 391.092 18.8335C397.517 15.936 402.997 14.4873 407.532 14.4873C411.605 14.4873 414.881 14.8652 417.358 15.6211C419.836 16.377 421.39 16.9648 422.02 17.3848C422.691 17.7627 423.027 18.2246 423.027 18.7705C423.027 19.2744 422.733 19.9043 422.146 20.6602C421.558 21.374 420.802 22.1509 419.878 22.9907C418.954 23.8306 417.925 24.6704 416.792 25.5103C415.7 26.3501 414.608 27.127 413.516 27.8408C410.997 29.4785 409.296 30.4863 408.414 30.8643Z" fill="black"/>
</svg>
