<svg width="786" height="146" viewBox="0 0 786 146" fill="none" xmlns="http://www.w3.org/2000/svg">
<path d="M478.963 62.0435C478.963 56.6685 477.452 53.981 474.428 53.981C473.42 53.981 472.455 54.1909 471.531 54.6108C476.276 50.5376 479.656 48.0181 481.672 47.0522C483.688 46.0444 485.388 45.5405 486.774 45.5405C488.16 45.5405 489.251 46.0234 490.049 46.9893C490.847 47.9551 491.246 49.1938 491.246 50.7056V87.8687C491.246 101.936 487.782 114.618 480.853 125.914C476.024 133.766 469.641 139.351 461.705 142.668C457.715 144.348 453.285 145.188 448.414 145.188C444.257 145.188 440.981 144.264 438.588 142.417C437.706 141.703 437.265 140.926 437.265 140.086C437.265 139.288 437.538 138.532 438.084 137.818C438.63 137.146 439.323 136.454 440.163 135.74C441.002 135.068 441.947 134.396 442.997 133.724C444.047 133.052 445.076 132.422 446.083 131.834C448.603 130.281 450.22 129.21 450.934 128.622C449.884 129.462 449.359 130.365 449.359 131.331C449.359 132.338 449.842 133.178 450.808 133.85C451.773 134.564 452.886 135.131 454.146 135.551C456.582 136.349 459.101 136.748 461.705 136.748C464.35 136.748 466.681 136.055 468.696 134.669C470.754 133.325 472.434 131.52 473.735 129.252C475.037 127.026 476.024 124.486 476.696 121.63C477.41 118.817 477.914 115.961 478.208 113.064C478.543 109.957 478.795 104.708 478.963 97.3169C469.599 104.456 461.474 108.025 454.587 108.025C449.8 108.025 446.188 106.471 443.753 103.364C441.569 100.55 440.478 96.687 440.478 91.7739V66.4526C440.478 57.9702 438.042 53.729 433.171 53.729C431.617 53.729 430.126 54.0229 428.699 54.6108C433.738 50.1177 437.895 47.2202 441.17 45.9185C442.724 45.3306 444.299 45.0366 445.895 45.0366C447.532 45.0366 448.813 45.3516 449.737 45.9814C450.661 46.5693 451.354 47.3462 451.815 48.312C452.529 49.8657 452.886 52.2173 452.886 55.3667L452.823 81.4438C452.823 87.4067 453.894 91.7949 456.036 94.6084C458.555 97.8418 462.649 99.4585 468.318 99.4585C470.376 99.4585 472.371 98.8916 474.302 97.7578C476.276 96.624 477.83 95.2173 478.963 93.5376V62.0435Z" fill="black"/>
</svg>
