<svg width="786" height="146" viewBox="0 0 786 146" fill="none" xmlns="http://www.w3.org/2000/svg">
<path d="M530.427 58.0122C531.225 57.4243 531.624 56.7944 531.624 56.1226C531.624 55.4507 531.225 54.9258 530.427 54.5479C529.629 54.1699 528.706 53.876 527.656 53.666C526.018 53.3301 524.485 53.1621 523.058 53.1621C521.672 53.1621 520.58 53.2461 519.782 53.4141C519.026 53.54 518.375 53.792 517.83 54.1699C516.654 54.9678 516.066 56.3745 516.066 58.3901C516.066 60.4058 516.507 62.0645 517.389 63.3662C518.271 64.626 519.425 65.6968 520.853 66.5786C522.323 67.4604 523.981 68.1953 525.829 68.7832C527.677 69.3711 529.545 69.959 531.435 70.5469C533.367 71.0928 535.256 71.7017 537.104 72.3735C538.952 73.0454 540.589 73.9272 542.017 75.019C545.25 77.3706 546.867 80.604 546.867 84.7192C546.867 88.7925 544.915 92.7817 541.009 96.687C537.692 100.004 533.325 102.818 527.908 105.127C522.869 107.311 518.375 108.403 514.428 108.403C509.641 108.403 505.799 107.395 502.901 105.379C501.852 104.624 501.327 103.658 501.327 102.482C501.327 101.264 501.873 100.172 502.964 99.2065C504.056 98.1987 505.337 97.2749 506.807 96.4351C508.276 95.5532 509.746 94.7344 511.216 93.9785C512.686 93.1807 513.798 92.3408 514.554 91.459C513.798 92.2988 513.42 93.2437 513.42 94.2935C513.42 95.3433 514.008 96.2461 515.184 97.002C516.36 97.7158 517.746 98.2827 519.341 98.7026C522.113 99.3745 524.779 99.7104 527.341 99.7104C529.902 99.7104 531.75 99.2485 532.884 98.3247C534.06 97.3589 534.647 95.7632 534.647 93.5376C534.647 91.312 534.207 89.5063 533.325 88.1206C532.443 86.6929 531.288 85.4751 529.86 84.4673C528.433 83.4595 526.795 82.6196 524.947 81.9478C523.1 81.2339 521.21 80.562 519.278 79.9321C517.389 79.2603 515.52 78.5884 513.672 77.9165C511.825 77.2446 510.187 76.4258 508.759 75.46C505.568 73.3184 503.972 70.5259 503.972 67.0825C503.972 63.8071 505.904 60.3008 509.767 56.5635C513.126 53.3721 516.633 50.8735 520.286 49.0679C526.543 46.0444 531.267 44.5327 534.458 44.5327C537.776 44.5327 540.169 44.8896 541.639 45.6035C543.109 46.3174 543.844 46.9473 543.844 47.4932C543.844 47.9971 543.676 48.459 543.34 48.8789C543.004 49.2988 542.584 49.6978 542.08 50.0757C541.618 50.4116 541.135 50.7266 540.631 51.0205C540.127 51.3145 539.414 51.7554 538.49 52.3433C537.566 52.9312 536.327 53.729 534.773 54.7368C533.22 55.7026 531.771 56.7944 530.427 58.0122Z" fill="black"/>
</svg>
