<svg width="786" height="146" viewBox="0 0 786 146" fill="none" xmlns="http://www.w3.org/2000/svg">
<path d="M551.09 52.2803L559.278 45.8555V36.9111C561.546 35.3154 563.163 34.0977 564.128 33.2578C565.094 32.418 565.913 31.8091 566.585 31.4312C567.257 31.0532 567.95 30.6543 568.664 30.2344C570.469 29.1846 571.435 28.5547 571.561 28.3447V43.7139H591.717C591.171 43.7559 589.786 44.7637 587.56 46.7373C583.319 50.4326 580.631 52.2803 579.498 52.2803H571.561V86.042C571.561 93.7686 573.787 98.2407 578.238 99.4585C579.582 99.7944 580.841 99.9624 582.017 99.9624C583.949 99.9624 585.586 99.6895 586.93 99.1436C588.274 98.5557 589.387 98.0308 590.269 97.5688C587.707 101.474 584.117 104.456 579.498 106.513C577.104 107.563 574.521 108.088 571.75 108.088C569.021 108.088 566.9 107.605 565.388 106.639C563.876 105.673 562.659 104.414 561.735 102.86C560.097 100.004 559.278 96.2251 559.278 91.522V52.2803H551.09Z" fill="black"/>
</svg>
