<svg width="786" height="146" viewBox="0 0 786 146" fill="none" xmlns="http://www.w3.org/2000/svg">
<path d="M641.04 95.2383C635.287 101.663 628.148 105.673 619.624 107.269C617.65 107.605 615.215 107.773 612.317 107.773C609.42 107.773 606.69 106.975 604.129 105.379C601.567 103.742 599.468 101.642 597.83 99.0806C594.723 94.1255 593.169 88.0786 593.169 80.9399C593.169 76.2368 594.975 71.0298 598.586 65.3188C602.113 59.6919 606.417 54.9888 611.499 51.2095C616.958 47.1782 622.123 45.1626 626.994 45.1626C629.513 45.1626 631.634 46.0864 633.355 47.9341C634.951 49.7397 635.749 51.7974 635.749 54.1069C635.749 56.4165 635.245 58.5581 634.237 60.5317C633.229 62.4634 631.907 64.353 630.269 66.2007C628.673 68.0483 626.826 69.833 624.726 71.5547C622.668 73.2344 620.548 74.8091 618.364 76.2788C615.299 78.3784 611.436 80.751 606.774 83.3965C608.118 88.4775 610.491 92.4038 613.892 95.1753C617.293 97.9048 621.682 99.2695 627.057 99.2695C631.592 99.2695 636.253 97.9258 641.04 95.2383ZM622.018 69.98C623.151 68.1743 623.718 66.4106 623.718 64.689C623.718 62.9673 623.529 61.5186 623.151 60.3428C622.773 59.125 622.228 58.0542 621.514 57.1304C619.876 55.0308 617.755 53.981 615.152 53.981C608.769 53.981 605.578 60.4897 605.578 73.5073C605.578 75.8169 605.767 78.1055 606.145 80.373C613.535 78.3154 618.826 74.8511 622.018 69.98Z" fill="black"/>
</svg>
