<svg width="786" height="146" viewBox="0 0 786 146" fill="none" xmlns="http://www.w3.org/2000/svg">
<path d="M696.598 56.4375C705.92 49.2988 713.017 45.7295 717.888 45.7295C721.164 45.7295 723.746 47.0942 725.636 49.8237C727.273 52.1333 728.092 55.0098 728.092 58.4531V88.5615C728.092 92.3828 728.323 94.8604 728.785 95.9941C729.793 98.2197 731.935 99.3325 735.21 99.3325C736.89 99.3325 738.485 99.0176 739.997 98.3877C736.26 101.621 733.677 103.7 732.25 104.624C728.974 106.765 726.098 107.836 723.62 107.836C721.185 107.836 719.442 107.416 718.392 106.576C717.384 105.694 716.67 104.582 716.25 103.238C715.789 101.768 715.558 98.7446 715.558 94.1675V70.4209C715.558 65.8018 715.117 62.5054 714.235 60.5317C713.395 58.5161 712.345 57.0044 711.085 55.9966C709.826 54.9888 708.335 54.4849 706.613 54.4849C704.934 54.4849 703.632 54.7368 702.708 55.2407C701.784 55.7446 700.986 56.3955 700.314 57.1934C697.795 60.1748 696.535 65.0039 696.535 71.6807V89.5693C696.535 92.6768 696.871 94.8184 697.543 95.9941C698.803 98.2197 700.902 99.3325 703.842 99.3325C705.521 99.3325 707.117 99.0176 708.629 98.3877C704.892 101.621 702.309 103.7 700.881 104.624C697.606 106.765 694.729 107.836 692.252 107.836C689.816 107.836 688.074 107.416 687.024 106.576C686.016 105.694 685.302 104.582 684.882 103.238C684.42 101.768 684.189 98.7446 684.189 94.1675V70.4209C684.189 65.8018 683.749 62.5054 682.867 60.5317C682.027 58.5161 680.977 57.0044 679.717 55.9966C678.458 54.9888 676.946 54.4849 675.182 54.4849C673.418 54.4849 672.054 54.8208 671.088 55.4927C670.122 56.1646 669.282 57.0674 668.568 58.2012C667.896 59.293 667.351 60.5527 666.931 61.9805C666.511 63.3662 666.175 64.7939 665.923 66.2637C665.545 68.7832 665.356 71.4077 665.356 74.1372V93.6006C665.356 96.2881 666.175 98.1147 667.812 99.0806C668.4 99.4585 669.135 99.6475 670.017 99.6475C670.899 99.6475 671.823 99.4375 672.789 99.0176C667.959 103.175 664.558 105.736 662.584 106.702C660.611 107.668 659.036 108.151 657.86 108.151C654.669 108.151 653.073 106.303 653.073 102.608V66.3267C653.073 64.8569 653.094 63.3872 653.136 61.9175C653.178 60.4478 653.031 59.104 652.695 57.8862C651.897 55.2407 649.609 53.918 645.83 53.918C644.024 53.918 642.218 54.2539 640.413 54.9258C641.504 54.5479 642.911 53.561 644.633 51.9653C647.992 48.9419 650.323 47.1782 651.625 46.6743C654.312 45.7085 656.559 45.2256 658.364 45.2256C660.212 45.2256 661.598 45.5615 662.521 46.2334C663.487 46.9053 664.18 47.7661 664.6 48.8159C665.104 50.1177 665.356 52.6372 665.356 56.3745C670.815 52.0493 676.106 48.8789 681.229 46.8633C683.161 46.1074 684.903 45.7295 686.457 45.7295C688.011 45.7295 689.375 46.0234 690.551 46.6113C691.769 47.1992 692.798 47.9971 693.638 49.0049C695.359 51.0625 696.346 53.54 696.598 56.4375Z" fill="black"/>
</svg>
