<svg width="786" height="146" viewBox="0 0 786 146" fill="none" xmlns="http://www.w3.org/2000/svg">
<path d="M769.289 58.0122C770.087 57.4243 770.486 56.7944 770.486 56.1226C770.486 55.4507 770.087 54.9258 769.289 54.5479C768.491 54.1699 767.567 53.876 766.518 53.666C764.88 53.3301 763.347 53.1621 761.919 53.1621C760.534 53.1621 759.442 53.2461 758.644 53.4141C757.888 53.54 757.237 53.792 756.691 54.1699C755.516 54.9678 754.928 56.3745 754.928 58.3901C754.928 60.4058 755.369 62.0645 756.25 63.3662C757.132 64.626 758.287 65.6968 759.715 66.5786C761.185 67.4604 762.843 68.1953 764.691 68.7832C766.539 69.3711 768.407 69.959 770.297 70.5469C772.229 71.0928 774.118 71.7017 775.966 72.3735C777.813 73.0454 779.451 73.9272 780.879 75.019C784.112 77.3706 785.729 80.604 785.729 84.7192C785.729 88.7925 783.776 92.7817 779.871 96.687C776.554 100.004 772.187 102.818 766.77 105.127C761.73 107.311 757.237 108.403 753.29 108.403C748.503 108.403 744.661 107.395 741.763 105.379C740.713 104.624 740.188 103.658 740.188 102.482C740.188 101.264 740.734 100.172 741.826 99.2065C742.918 98.1987 744.199 97.2749 745.668 96.4351C747.138 95.5532 748.608 94.7344 750.078 93.9785C751.547 93.1807 752.66 92.3408 753.416 91.459C752.66 92.2988 752.282 93.2437 752.282 94.2935C752.282 95.3433 752.87 96.2461 754.046 97.002C755.222 97.7158 756.607 98.2827 758.203 98.7026C760.975 99.3745 763.641 99.7104 766.203 99.7104C768.764 99.7104 770.612 99.2485 771.746 98.3247C772.921 97.3589 773.509 95.7632 773.509 93.5376C773.509 91.312 773.068 89.5063 772.187 88.1206C771.305 86.6929 770.15 85.4751 768.722 84.4673C767.294 83.4595 765.657 82.6196 763.809 81.9478C761.961 81.2339 760.072 80.562 758.14 79.9321C756.25 79.2603 754.382 78.5884 752.534 77.9165C750.687 77.2446 749.049 76.4258 747.621 75.46C744.43 73.3184 742.834 70.5259 742.834 67.0825C742.834 63.8071 744.766 60.3008 748.629 56.5635C751.988 53.3721 755.495 50.8735 759.148 49.0679C765.405 46.0444 770.129 44.5327 773.32 44.5327C776.638 44.5327 779.031 44.8896 780.501 45.6035C781.971 46.3174 782.706 46.9473 782.706 47.4932C782.706 47.9971 782.538 48.459 782.202 48.8789C781.866 49.2988 781.446 49.6978 780.942 50.0757C780.48 50.4116 779.997 50.7266 779.493 51.0205C778.989 51.3145 778.275 51.7554 777.352 52.3433C776.428 52.9312 775.189 53.729 773.635 54.7368C772.082 55.7026 770.633 56.7944 769.289 58.0122Z" fill="black"/>
</svg>
