<svg width="257" height="80" viewBox="0 0 257 80" fill="none" xmlns="http://www.w3.org/2000/svg">
<rect x="3" y="3" width="251" height="74" stroke="black" stroke-width="6"/>
<path d="M23.6591 27.7273H29.1705L34.4773 37.75H34.7045L40.0114 27.7273H45.5227L37.0341 42.7727V51H32.1477V42.7727L23.6591 27.7273ZM68.1903 39.3636C68.1903 41.9015 67.7093 44.0606 66.7472 45.8409C65.7926 47.6212 64.4896 48.9811 62.8381 49.9205C61.1941 50.8523 59.3456 51.3182 57.2926 51.3182C55.2244 51.3182 53.3684 50.8485 51.7244 49.9091C50.0805 48.9697 48.7813 47.6098 47.8267 45.8295C46.8722 44.0492 46.3949 41.8939 46.3949 39.3636C46.3949 36.8258 46.8722 34.6667 47.8267 32.8864C48.7813 31.1061 50.0805 29.75 51.7244 28.8182C53.3684 27.8788 55.2244 27.4091 57.2926 27.4091C59.3456 27.4091 61.1941 27.8788 62.8381 28.8182C64.4896 29.75 65.7926 31.1061 66.7472 32.8864C67.7093 34.6667 68.1903 36.8258 68.1903 39.3636ZM63.2017 39.3636C63.2017 37.7197 62.9555 36.3333 62.4631 35.2045C61.9782 34.0758 61.2926 33.2197 60.4062 32.6364C59.5199 32.053 58.482 31.7614 57.2926 31.7614C56.1032 31.7614 55.0653 32.053 54.179 32.6364C53.2926 33.2197 52.6032 34.0758 52.1108 35.2045C51.6259 36.3333 51.3835 37.7197 51.3835 39.3636C51.3835 41.0076 51.6259 42.3939 52.1108 43.5227C52.6032 44.6515 53.2926 45.5076 54.179 46.0909C55.0653 46.6742 56.1032 46.9659 57.2926 46.9659C58.482 46.9659 59.5199 46.6742 60.4062 46.0909C61.2926 45.5076 61.9782 44.6515 62.4631 43.5227C62.9555 42.3939 63.2017 41.0076 63.2017 39.3636ZM86.2102 27.7273H91.1307V42.8409C91.1307 44.5379 90.7254 46.0227 89.9148 47.2955C89.1117 48.5682 87.9867 49.5606 86.5398 50.2727C85.0928 50.9773 83.4072 51.3295 81.483 51.3295C79.5511 51.3295 77.8617 50.9773 76.4148 50.2727C74.9678 49.5606 73.8428 48.5682 73.0398 47.2955C72.2367 46.0227 71.8352 44.5379 71.8352 42.8409V27.7273H76.7557V42.4205C76.7557 43.3068 76.9489 44.0947 77.3352 44.7841C77.7292 45.4735 78.2822 46.0152 78.9943 46.4091C79.7064 46.803 80.536 47 81.483 47C82.4375 47 83.267 46.803 83.9716 46.4091C84.6837 46.0152 85.233 45.4735 85.6193 44.7841C86.0133 44.0947 86.2102 43.3068 86.2102 42.4205V27.7273ZM95.179 51V27.7273H104.361C106.118 27.7273 107.618 28.0417 108.861 28.6705C110.111 29.2917 111.062 30.1742 111.713 31.3182C112.372 32.4545 112.702 33.7917 112.702 35.3295C112.702 36.875 112.368 38.2045 111.702 39.3182C111.035 40.4242 110.069 41.2727 108.804 41.8636C107.546 42.4545 106.024 42.75 104.236 42.75H98.0881V38.7955H103.44C104.38 38.7955 105.16 38.6667 105.781 38.4091C106.402 38.1515 106.865 37.7652 107.168 37.25C107.478 36.7348 107.634 36.0947 107.634 35.3295C107.634 34.5568 107.478 33.9053 107.168 33.375C106.865 32.8447 106.399 32.4432 105.77 32.1705C105.149 31.8902 104.365 31.75 103.418 31.75H100.099V51H95.179ZM107.747 40.4091L113.531 51H108.099L102.44 40.4091H107.747ZM123.585 51V27.7273H132.903C134.616 27.7273 136.044 27.9811 137.188 28.4886C138.331 28.9962 139.191 29.7008 139.767 30.6023C140.343 31.4962 140.631 32.5265 140.631 33.6932C140.631 34.6023 140.449 35.4015 140.085 36.0909C139.722 36.7727 139.222 37.3333 138.585 37.7727C137.956 38.2045 137.237 38.5114 136.426 38.6932V38.9205C137.313 38.9583 138.142 39.2083 138.915 39.6705C139.695 40.1326 140.328 40.7803 140.812 41.6136C141.297 42.4394 141.54 43.4242 141.54 44.5682C141.54 45.803 141.233 46.9053 140.619 47.875C140.013 48.8371 139.116 49.5985 137.926 50.1591C136.737 50.7197 135.271 51 133.528 51H123.585ZM128.506 46.9773H132.517C133.888 46.9773 134.888 46.7159 135.517 46.1932C136.146 45.6629 136.46 44.9583 136.46 44.0795C136.46 43.4356 136.305 42.8674 135.994 42.375C135.684 41.8826 135.241 41.4962 134.665 41.2159C134.097 40.9356 133.419 40.7955 132.631 40.7955H128.506V46.9773ZM128.506 37.4659H132.153C132.828 37.4659 133.426 37.3485 133.949 37.1136C134.479 36.8712 134.896 36.5303 135.199 36.0909C135.509 35.6515 135.665 35.125 135.665 34.5114C135.665 33.6705 135.366 32.9924 134.767 32.4773C134.176 31.9621 133.335 31.7045 132.244 31.7045H128.506V37.4659ZM144.741 51V27.7273H153.923C155.681 27.7273 157.181 28.0417 158.423 28.6705C159.673 29.2917 160.624 30.1742 161.276 31.3182C161.935 32.4545 162.264 33.7917 162.264 35.3295C162.264 36.875 161.931 38.2045 161.264 39.3182C160.598 40.4242 159.632 41.2727 158.366 41.8636C157.109 42.4545 155.586 42.75 153.798 42.75H147.651V38.7955H153.003C153.942 38.7955 154.723 38.6667 155.344 38.4091C155.965 38.1515 156.427 37.7652 156.73 37.25C157.041 36.7348 157.196 36.0947 157.196 35.3295C157.196 34.5568 157.041 33.9053 156.73 33.375C156.427 32.8447 155.961 32.4432 155.332 32.1705C154.711 31.8902 153.927 31.75 152.98 31.75H149.662V51H144.741ZM157.31 40.4091L163.094 51H157.662L152.003 40.4091H157.31ZM169.753 51H164.48L172.514 27.7273H178.855L186.878 51H181.605L175.776 33.0455H175.594L169.753 51ZM169.423 41.8523H181.878V45.6932H169.423V41.8523ZM209.145 27.7273V51H204.895L194.77 36.3523H194.599V51H189.679V27.7273H193.997L204.043 42.3636H204.247V27.7273H209.145ZM221.46 51H213.21V27.7273H221.528C223.869 27.7273 225.884 28.1932 227.574 29.125C229.263 30.0492 230.563 31.3788 231.472 33.1136C232.388 34.8485 232.847 36.9242 232.847 39.3409C232.847 41.7652 232.388 43.8485 231.472 45.5909C230.563 47.3333 229.256 48.6705 227.551 49.6023C225.854 50.5341 223.824 51 221.46 51ZM218.131 46.7841H221.256C222.71 46.7841 223.934 46.5265 224.926 46.0114C225.926 45.4886 226.676 44.6818 227.176 43.5909C227.684 42.4924 227.938 41.0758 227.938 39.3409C227.938 37.6212 227.684 36.2159 227.176 35.125C226.676 34.0341 225.93 33.2311 224.938 32.7159C223.945 32.2008 222.722 31.9432 221.267 31.9432H218.131V46.7841Z" fill="black"/>
</svg>
