<svg width="790" height="151" viewBox="0 0 790 151" fill="none" xmlns="http://www.w3.org/2000/svg">
<path d="M66.3501 107.921C60.1353 111.029 53.5425 112.583 46.5718 112.583C39.6431 112.583 33.5332 111.617 28.2422 109.685C22.9512 107.753 18.416 104.982 14.6367 101.371C6.6582 93.728 2.66895 83.5029 2.66895 70.6953C2.66895 60.9951 5.48242 51.8828 11.1094 43.3584C16.4844 35.2119 23.5391 28.7451 32.2734 23.958C41.2598 19.0449 50.54 16.5884 60.1143 16.5884C71.5781 16.5884 81.4463 20.3887 89.7188 27.9893C98.2012 35.7998 102.442 45.395 102.442 56.7749C102.442 69.0786 97.7183 80.4795 88.27 90.9775C85.4146 94.127 82.3281 97.0034 79.0107 99.6069C82.0762 101.749 85.3096 104.016 88.7109 106.41C92.1123 108.761 95.6396 110.945 99.293 112.96C107.691 117.622 115.25 119.952 121.969 119.952C125.664 119.952 130.325 118.797 135.952 116.488C130.409 122.031 123.921 125.747 116.489 127.637C114.011 128.267 111.387 128.582 108.615 128.582C103.324 128.582 98.0752 127.175 92.8682 124.361C85.8135 120.624 76.9741 115.144 66.3501 107.921ZM90.1597 65.7822C90.1597 60.1133 89.0469 54.7593 86.8213 49.7202C84.6377 44.6392 81.6143 40.293 77.751 36.6816C69.6885 29.165 59.5264 25.4067 47.2646 25.4067C30.4258 25.4067 20.2217 32.4404 16.6523 46.5078C15.5186 50.959 14.9517 56.208 14.9517 62.2549C14.9517 68.2598 16.0015 73.8867 18.1011 79.1357C20.2007 84.3848 23.1611 88.8779 26.9824 92.6152C35.0029 100.384 45.417 104.268 58.2246 104.268C68.8486 104.268 76.9531 100.531 82.5381 93.0562C87.6191 86.2954 90.1597 77.2041 90.1597 65.7822Z" fill="black"/>
<path d="M147.733 57.8457C154.494 51.7568 159.449 48.7124 162.599 48.7124C165.748 48.7124 167.323 50.728 167.323 54.7593V94.7568C167.323 97.2764 167.89 99.166 169.024 100.426C170.157 101.686 172.047 102.315 174.692 102.315C176.54 102.315 178.346 101.979 180.109 101.308C178.724 101.812 177.464 102.609 176.33 103.701C175.238 104.751 174.063 105.822 172.803 106.914C169.653 109.643 166.063 111.008 162.032 111.008C158.169 111.008 155.964 108.866 155.418 104.583C155.292 103.365 155.208 102.126 155.166 100.867C146.012 107.795 137.886 111.26 130.79 111.26C126.003 111.26 122.391 109.16 119.956 104.961C117.772 101.182 116.68 96.0166 116.68 89.4658V68.2388C116.68 64.5854 116.365 62.1079 115.735 60.8062C114.56 58.2026 112.439 56.9009 109.374 56.9009C107.904 56.9009 106.413 57.2158 104.901 57.8457C110.024 53.2686 114.182 50.3711 117.373 49.1533C118.927 48.5234 120.544 48.2085 122.223 48.2085C126.8 48.2085 129.089 51.127 129.089 56.9639C129.089 56.9639 129.089 58.3706 129.089 61.1841C129.089 61.1841 129.068 69.0156 129.026 84.6787C129.026 90.6836 130.139 95.0928 132.364 97.9062C134.8 101.098 138.852 102.693 144.521 102.693C147.293 102.693 150.169 101.497 153.15 99.103C153.906 98.5151 154.578 98.0112 155.166 97.5913V64.3335C155.166 61.2261 154.41 59.0845 152.899 57.9087C152.269 57.4468 151.492 57.2158 150.568 57.2158C149.644 57.2158 148.699 57.4258 147.733 57.8457Z" fill="black"/>
<path d="M200.079 3.10889L200.457 10.2896V13.5649C200.457 15.5806 200.205 16.8193 199.701 17.2812C199.197 17.7012 198.652 18.1211 198.064 18.541C195.712 20.2207 192.311 22.4883 187.86 25.3438C188.069 21.1445 188.174 18.9819 188.174 18.856C188.174 18.688 188.069 16.2944 187.86 11.6753L200.079 3.10889ZM213.244 102.252C211.984 103.26 210.745 104.289 209.527 105.339C208.352 106.389 207.113 107.354 205.811 108.236C202.788 110.21 199.89 111.197 197.119 111.197C194.515 111.197 192.689 110.798 191.639 110C189.497 108.404 188.426 105.465 188.426 101.182V71.3252C188.426 66.79 187.608 63.8506 185.97 62.5068C185.214 61.877 184.395 61.562 183.513 61.562C182.632 61.562 181.876 61.625 181.246 61.751C180.658 61.835 180.049 61.9399 179.419 62.0659C178.789 62.1919 178.138 62.3179 177.466 62.4438C179.566 60.8062 181.519 59.3364 183.324 58.0347C185.172 56.7329 186.747 55.6411 188.048 54.7593C189.35 53.8774 191.156 52.6387 193.465 51.043C195.775 49.4053 198.169 47.9355 200.646 46.6338V91.1035C200.646 95.3867 200.919 98.0952 201.465 99.229C202.641 101.539 205.244 102.693 209.276 102.693C210.367 102.693 211.69 102.546 213.244 102.252Z" fill="black"/>
<path d="M222.443 105.717L222.506 65.2153C222.506 62.4019 222.128 60.5122 221.372 59.5464C220.07 57.8667 218.264 57.0269 215.955 57.0269C213.645 57.0269 211.588 57.3628 209.782 58.0347C210.874 57.6147 212.301 56.6279 214.065 55.0742C217.299 52.0928 219.587 50.3501 220.931 49.8462C223.45 48.8384 225.655 48.3345 227.545 48.3345C229.476 48.3345 230.904 48.6494 231.828 49.2793C232.794 49.9092 233.487 50.749 233.906 51.7988C234.452 53.1006 234.725 55.5781 234.725 59.2314C242.578 52.3027 249.927 48.8384 256.771 48.8384C260.509 48.8384 263.763 50.0142 266.534 52.3657C269.432 54.8853 270.881 57.9507 270.881 61.562V92.6782C270.881 95.7856 271.217 97.9272 271.888 99.103C273.148 101.329 275.248 102.441 278.187 102.441C279.867 102.441 281.463 102.126 282.974 101.497C279.237 104.73 276.655 106.809 275.227 107.732C271.951 109.874 269.075 110.945 266.597 110.945C264.162 110.945 262.419 110.504 261.369 109.622C260.362 108.74 259.648 107.627 259.228 106.284C258.766 104.814 258.535 101.812 258.535 97.2764V73.7188C258.535 66.2021 256.078 61.2471 251.165 58.8535C249.402 58.0137 247.281 57.5938 244.803 57.5938C238.715 57.5938 235.418 62.1079 234.914 71.1362C234.788 73.4038 234.725 75.4404 234.725 77.2461V96.7095C234.725 99.397 235.544 101.224 237.182 102.189C237.77 102.567 238.505 102.756 239.386 102.756C240.268 102.756 241.192 102.546 242.158 102.126C241.276 102.882 240.226 103.785 239.009 104.835C237.791 105.885 236.51 106.893 235.166 107.858C231.849 110.126 229.203 111.26 227.23 111.26C224.038 111.26 222.443 109.412 222.443 105.717Z" fill="black"/>
<path d="M332.486 98.3472C326.733 104.772 319.594 108.782 311.07 110.378C309.096 110.714 306.66 110.882 303.763 110.882C300.866 110.882 298.136 110.084 295.575 108.488C293.013 106.851 290.913 104.751 289.276 102.189C286.168 97.2344 284.615 91.1875 284.615 84.0488C284.615 79.3457 286.42 74.1387 290.032 68.4277C293.559 62.8008 297.863 58.0977 302.944 54.3184C308.403 50.2871 313.568 48.2715 318.439 48.2715C320.959 48.2715 323.079 49.1953 324.801 51.043C326.397 52.8486 327.195 54.9062 327.195 57.2158C327.195 59.5254 326.691 61.667 325.683 63.6406C324.675 65.5723 323.352 67.4619 321.715 69.3096C320.119 71.1572 318.271 72.9419 316.172 74.6636C314.114 76.3433 311.993 77.918 309.81 79.3877C306.744 81.4873 302.881 83.8599 298.22 86.5054C299.564 91.5864 301.936 95.5127 305.338 98.2842C308.739 101.014 313.127 102.378 318.502 102.378C323.037 102.378 327.699 101.035 332.486 98.3472ZM313.463 73.0889C314.597 71.2832 315.164 69.5195 315.164 67.7979C315.164 66.0762 314.975 64.6274 314.597 63.4517C314.219 62.2339 313.673 61.1631 312.959 60.2393C311.322 58.1396 309.201 57.0898 306.597 57.0898C300.215 57.0898 297.023 63.5986 297.023 76.6162C297.023 78.9258 297.212 81.2144 297.59 83.4819C304.981 81.4243 310.272 77.96 313.463 73.0889Z" fill="black"/>
<path d="M411.037 33.9731C412.465 32.5454 413.179 31.5166 413.179 30.8867C413.179 30.2148 412.864 29.6479 412.234 29.186C411.646 28.7241 410.869 28.3252 409.903 27.9893C408.979 27.6533 407.93 27.3804 406.754 27.1704C405.62 26.9185 404.507 26.7295 403.415 26.6035C401.232 26.3516 399.363 26.2256 397.81 26.2256C396.298 26.2256 394.534 26.3726 392.519 26.6665C390.545 26.9604 388.718 27.5273 387.039 28.3672C383.217 30.2988 381.307 33.1753 381.307 36.9966C381.307 40.8179 381.999 43.8833 383.385 46.1929C384.813 48.4604 386.661 50.3501 388.928 51.8618C391.196 53.3735 393.778 54.6333 396.676 55.6411C399.615 56.6489 402.618 57.5938 405.683 58.4756C408.749 59.3574 411.73 60.3022 414.627 61.3101C417.567 62.3179 420.17 63.5986 422.438 65.1523C427.519 68.6377 430.06 73.4878 430.06 79.7026C430.06 85.7915 427.477 91.4395 422.312 96.6465C417.903 101.098 412.045 104.751 404.738 107.606C398.145 110.21 391.826 111.512 385.779 111.512C382.041 111.512 378.64 111.071 375.575 110.189C372.551 109.307 370.41 108.53 369.15 107.858C366.21 106.389 364.741 104.646 364.741 102.63C364.741 99.397 369.549 95.1558 379.165 89.9067C377.905 91.2925 377.275 92.6362 377.275 93.938C377.275 95.1978 377.674 96.2896 378.472 97.2134C379.312 98.0952 380.383 98.8721 381.685 99.5439C382.986 100.174 384.435 100.699 386.031 101.119C387.668 101.539 389.285 101.875 390.881 102.126C393.82 102.588 396.487 102.819 398.88 102.819C401.274 102.819 403.625 102.609 405.935 102.189C408.245 101.728 410.302 100.951 412.108 99.8589C416.181 97.4233 418.218 93.5811 418.218 88.332C418.218 80.1855 413.053 74.1387 402.723 70.1914C399.783 69.0996 396.76 68.0708 393.652 67.105C390.587 66.0972 387.584 65.0684 384.645 64.0186C381.706 62.9688 379.102 61.709 376.834 60.2393C371.711 56.8799 369.15 52.4497 369.15 46.9487C369.15 42.3716 371.732 37.6475 376.897 32.7764C381.349 28.5771 386.955 24.9658 393.715 21.9424C400.14 19.0449 405.62 17.5962 410.155 17.5962C414.228 17.5962 417.504 17.9741 419.981 18.73C422.459 19.4858 424.013 20.0737 424.643 20.4937C425.314 20.8716 425.65 21.3335 425.65 21.8794C425.65 22.3833 425.356 23.0132 424.769 23.769C424.181 24.4829 423.425 25.2598 422.501 26.0996C421.577 26.9395 420.548 27.7793 419.415 28.6191C418.323 29.459 417.231 30.2358 416.139 30.9497C413.62 32.5874 411.919 33.5952 411.037 33.9731Z" fill="black"/>
<path d="M481.586 65.1523C481.586 59.7773 480.075 57.0898 477.051 57.0898C476.044 57.0898 475.078 57.2998 474.154 57.7197C478.899 53.6465 482.279 51.127 484.295 50.1611C486.311 49.1533 488.011 48.6494 489.397 48.6494C490.783 48.6494 491.875 49.1323 492.672 50.0981C493.47 51.064 493.869 52.3027 493.869 53.8145V90.9775C493.869 105.045 490.405 117.727 483.476 129.022C478.647 136.875 472.264 142.46 464.328 145.777C460.338 147.457 455.908 148.297 451.037 148.297C446.88 148.297 443.605 147.373 441.211 145.525C440.329 144.812 439.888 144.035 439.888 143.195C439.888 142.397 440.161 141.641 440.707 140.927C441.253 140.255 441.946 139.562 442.786 138.849C443.626 138.177 444.57 137.505 445.62 136.833C446.67 136.161 447.699 135.531 448.707 134.943C451.226 133.39 452.843 132.319 453.557 131.731C452.507 132.571 451.982 133.474 451.982 134.439C451.982 135.447 452.465 136.287 453.431 136.959C454.397 137.673 455.509 138.24 456.769 138.66C459.205 139.458 461.724 139.856 464.328 139.856C466.973 139.856 469.304 139.164 471.319 137.778C473.377 136.434 475.057 134.628 476.358 132.361C477.66 130.135 478.647 127.595 479.319 124.739C480.033 121.926 480.537 119.07 480.831 116.173C481.167 113.065 481.419 107.816 481.586 100.426C472.222 107.564 464.097 111.134 457.21 111.134C452.423 111.134 448.812 109.58 446.376 106.473C444.192 103.659 443.101 99.7959 443.101 94.8828V69.5615C443.101 61.0791 440.665 56.8379 435.794 56.8379C434.24 56.8379 432.75 57.1318 431.322 57.7197C436.361 53.2266 440.518 50.3291 443.794 49.0273C445.347 48.4395 446.922 48.1455 448.518 48.1455C450.155 48.1455 451.436 48.4604 452.36 49.0903C453.284 49.6782 453.977 50.4551 454.439 51.4209C455.152 52.9746 455.509 55.3262 455.509 58.4756L455.446 84.5527C455.446 90.5156 456.517 94.9038 458.659 97.7173C461.178 100.951 465.273 102.567 470.941 102.567C472.999 102.567 474.994 102 476.925 100.867C478.899 99.7329 480.453 98.3262 481.586 96.6465V65.1523Z" fill="black"/>
<path d="M533.05 61.1211C533.848 60.5332 534.247 59.9033 534.247 59.2314C534.247 58.5596 533.848 58.0347 533.05 57.6567C532.253 57.2788 531.329 56.9849 530.279 56.7749C528.641 56.439 527.109 56.271 525.681 56.271C524.295 56.271 523.203 56.355 522.405 56.5229C521.65 56.6489 520.999 56.9009 520.453 57.2788C519.277 58.0767 518.689 59.4834 518.689 61.499C518.689 63.5146 519.13 65.1733 520.012 66.4751C520.894 67.7349 522.048 68.8057 523.476 69.6875C524.946 70.5693 526.605 71.3042 528.452 71.8921C530.3 72.48 532.169 73.0679 534.058 73.6558C535.99 74.2017 537.88 74.8105 539.727 75.4824C541.575 76.1543 543.213 77.0361 544.64 78.1279C547.874 80.4795 549.49 83.7129 549.49 87.8281C549.49 91.9014 547.538 95.8906 543.632 99.7959C540.315 103.113 535.948 105.927 530.531 108.236C525.492 110.42 520.999 111.512 517.051 111.512C512.264 111.512 508.422 110.504 505.525 108.488C504.475 107.732 503.95 106.767 503.95 105.591C503.95 104.373 504.496 103.281 505.588 102.315C506.679 101.308 507.96 100.384 509.43 99.5439C510.9 98.6621 512.369 97.8433 513.839 97.0874C515.309 96.2896 516.422 95.4497 517.177 94.5679C516.422 95.4077 516.044 96.3525 516.044 97.4023C516.044 98.4521 516.631 99.355 517.807 100.111C518.983 100.825 520.369 101.392 521.964 101.812C524.736 102.483 527.402 102.819 529.964 102.819C532.526 102.819 534.373 102.357 535.507 101.434C536.683 100.468 537.271 98.8721 537.271 96.6465C537.271 94.4209 536.83 92.6152 535.948 91.2295C535.066 89.8018 533.911 88.584 532.484 87.5762C531.056 86.5684 529.418 85.7285 527.57 85.0566C525.723 84.3428 523.833 83.6709 521.901 83.041C520.012 82.3691 518.143 81.6973 516.296 81.0254C514.448 80.3535 512.81 79.5347 511.382 78.5688C508.191 76.4272 506.595 73.6348 506.595 70.1914C506.595 66.916 508.527 63.4097 512.39 59.6724C515.75 56.481 519.256 53.9824 522.909 52.1768C529.166 49.1533 533.89 47.6416 537.082 47.6416C540.399 47.6416 542.793 47.9985 544.262 48.7124C545.732 49.4263 546.467 50.0562 546.467 50.6021C546.467 51.106 546.299 51.5679 545.963 51.9878C545.627 52.4077 545.207 52.8066 544.703 53.1846C544.241 53.5205 543.758 53.8354 543.255 54.1294C542.751 54.4233 542.037 54.8643 541.113 55.4521C540.189 56.04 538.95 56.8379 537.397 57.8457C535.843 58.8115 534.394 59.9033 533.05 61.1211Z" fill="black"/>
<path d="M553.713 55.3892L561.902 48.9644V40.02C564.169 38.4243 565.786 37.2065 566.752 36.3667C567.718 35.5269 568.536 34.918 569.208 34.54C569.88 34.1621 570.573 33.7632 571.287 33.3433C573.093 32.2935 574.058 31.6636 574.184 31.4536V46.8228H594.341C593.795 46.8647 592.409 47.8726 590.183 49.8462C585.942 53.5415 583.255 55.3892 582.121 55.3892H574.184V89.1509C574.184 96.8774 576.41 101.35 580.861 102.567C582.205 102.903 583.465 103.071 584.64 103.071C586.572 103.071 588.21 102.798 589.553 102.252C590.897 101.665 592.01 101.14 592.892 100.678C590.33 104.583 586.74 107.564 582.121 109.622C579.727 110.672 577.145 111.197 574.373 111.197C571.644 111.197 569.523 110.714 568.011 109.748C566.5 108.782 565.282 107.522 564.358 105.969C562.72 103.113 561.902 99.334 561.902 94.6309V55.3892H553.713Z" fill="black"/>
<path d="M643.663 98.3472C637.91 104.772 630.771 108.782 622.247 110.378C620.273 110.714 617.838 110.882 614.94 110.882C612.043 110.882 609.313 110.084 606.752 108.488C604.19 106.851 602.091 104.751 600.453 102.189C597.346 97.2344 595.792 91.1875 595.792 84.0488C595.792 79.3457 597.597 74.1387 601.209 68.4277C604.736 62.8008 609.04 58.0977 614.121 54.3184C619.58 50.2871 624.745 48.2715 629.617 48.2715C632.136 48.2715 634.257 49.1953 635.978 51.043C637.574 52.8486 638.372 54.9062 638.372 57.2158C638.372 59.5254 637.868 61.667 636.86 63.6406C635.852 65.5723 634.53 67.4619 632.892 69.3096C631.296 71.1572 629.449 72.9419 627.349 74.6636C625.291 76.3433 623.171 77.918 620.987 79.3877C617.922 81.4873 614.058 83.8599 609.397 86.5054C610.741 91.5864 613.114 95.5127 616.515 98.2842C619.916 101.014 624.305 102.378 629.68 102.378C634.215 102.378 638.876 101.035 643.663 98.3472ZM624.64 73.0889C625.774 71.2832 626.341 69.5195 626.341 67.7979C626.341 66.0762 626.152 64.6274 625.774 63.4517C625.396 62.2339 624.85 61.1631 624.137 60.2393C622.499 58.1396 620.378 57.0898 617.775 57.0898C611.392 57.0898 608.201 63.5986 608.201 76.6162C608.201 78.9258 608.389 81.2144 608.767 83.4819C616.158 81.4243 621.449 77.96 624.64 73.0889Z" fill="black"/>
<path d="M699.221 59.5464C708.543 52.4077 715.64 48.8384 720.511 48.8384C723.786 48.8384 726.369 50.2031 728.259 52.9326C729.896 55.2422 730.715 58.1187 730.715 61.562V91.6704C730.715 95.4917 730.946 97.9692 731.408 99.103C732.416 101.329 734.557 102.441 737.833 102.441C739.513 102.441 741.108 102.126 742.62 101.497C738.883 104.73 736.3 106.809 734.872 107.732C731.597 109.874 728.721 110.945 726.243 110.945C723.807 110.945 722.065 110.525 721.015 109.685C720.007 108.803 719.293 107.69 718.873 106.347C718.411 104.877 718.181 101.854 718.181 97.2764V73.5298C718.181 68.9106 717.74 65.6143 716.858 63.6406C716.018 61.625 714.968 60.1133 713.708 59.1055C712.449 58.0977 710.958 57.5938 709.236 57.5938C707.557 57.5938 706.255 57.8457 705.331 58.3496C704.407 58.8535 703.609 59.5044 702.937 60.3022C700.418 63.2837 699.158 68.1128 699.158 74.7896V92.6782C699.158 95.7856 699.494 97.9272 700.166 99.103C701.426 101.329 703.525 102.441 706.465 102.441C708.144 102.441 709.74 102.126 711.252 101.497C707.515 104.73 704.932 106.809 703.504 107.732C700.229 109.874 697.352 110.945 694.875 110.945C692.439 110.945 690.697 110.525 689.647 109.685C688.639 108.803 687.925 107.69 687.505 106.347C687.043 104.877 686.812 101.854 686.812 97.2764V73.5298C686.812 68.9106 686.371 65.6143 685.49 63.6406C684.65 61.625 683.6 60.1133 682.34 59.1055C681.08 58.0977 679.569 57.5938 677.805 57.5938C676.041 57.5938 674.677 57.9297 673.711 58.6016C672.745 59.2734 671.905 60.1763 671.191 61.3101C670.519 62.4019 669.974 63.6616 669.554 65.0894C669.134 66.4751 668.798 67.9028 668.546 69.3726C668.168 71.8921 667.979 74.5166 667.979 77.2461V96.7095C667.979 99.397 668.798 101.224 670.435 102.189C671.023 102.567 671.758 102.756 672.64 102.756C673.522 102.756 674.446 102.546 675.411 102.126C670.582 106.284 667.181 108.845 665.207 109.811C663.234 110.777 661.659 111.26 660.483 111.26C657.292 111.26 655.696 109.412 655.696 105.717V69.4355C655.696 67.9658 655.717 66.4961 655.759 65.0264C655.801 63.5566 655.654 62.2129 655.318 60.9951C654.52 58.3496 652.232 57.0269 648.453 57.0269C646.647 57.0269 644.841 57.3628 643.036 58.0347C644.127 57.6567 645.534 56.6699 647.256 55.0742C650.615 52.0508 652.946 50.2871 654.247 49.7832C656.935 48.8174 659.182 48.3345 660.987 48.3345C662.835 48.3345 664.221 48.6704 665.144 49.3423C666.11 50.0142 666.803 50.875 667.223 51.9248C667.727 53.2266 667.979 55.7461 667.979 59.4834C673.438 55.1582 678.729 51.9878 683.852 49.9722C685.784 49.2163 687.526 48.8384 689.08 48.8384C690.634 48.8384 691.998 49.1323 693.174 49.7202C694.392 50.3081 695.421 51.106 696.261 52.1138C697.982 54.1714 698.969 56.6489 699.221 59.5464Z" fill="black"/>
<path d="M771.912 61.1211C772.71 60.5332 773.109 59.9033 773.109 59.2314C773.109 58.5596 772.71 58.0347 771.912 57.6567C771.114 57.2788 770.19 56.9849 769.141 56.7749C767.503 56.439 765.97 56.271 764.542 56.271C763.157 56.271 762.065 56.355 761.267 56.5229C760.511 56.6489 759.86 56.9009 759.314 57.2788C758.139 58.0767 757.551 59.4834 757.551 61.499C757.551 63.5146 757.992 65.1733 758.873 66.4751C759.755 67.7349 760.91 68.8057 762.338 69.6875C763.808 70.5693 765.466 71.3042 767.314 71.8921C769.162 72.48 771.03 73.0679 772.92 73.6558C774.852 74.2017 776.741 74.8105 778.589 75.4824C780.436 76.1543 782.074 77.0361 783.502 78.1279C786.735 80.4795 788.352 83.7129 788.352 87.8281C788.352 91.9014 786.399 95.8906 782.494 99.7959C779.177 103.113 774.81 105.927 769.393 108.236C764.353 110.42 759.86 111.512 755.913 111.512C751.126 111.512 747.284 110.504 744.386 108.488C743.336 107.732 742.811 106.767 742.811 105.591C742.811 104.373 743.357 103.281 744.449 102.315C745.541 101.308 746.822 100.384 748.291 99.5439C749.761 98.6621 751.231 97.8433 752.701 97.0874C754.17 96.2896 755.283 95.4497 756.039 94.5679C755.283 95.4077 754.905 96.3525 754.905 97.4023C754.905 98.4521 755.493 99.355 756.669 100.111C757.845 100.825 759.23 101.392 760.826 101.812C763.598 102.483 766.264 102.819 768.826 102.819C771.387 102.819 773.235 102.357 774.369 101.434C775.544 100.468 776.132 98.8721 776.132 96.6465C776.132 94.4209 775.691 92.6152 774.81 91.2295C773.928 89.8018 772.773 88.584 771.345 87.5762C769.917 86.5684 768.28 85.7285 766.432 85.0566C764.584 84.3428 762.695 83.6709 760.763 83.041C758.873 82.3691 757.005 81.6973 755.157 81.0254C753.31 80.3535 751.672 79.5347 750.244 78.5688C747.053 76.4272 745.457 73.6348 745.457 70.1914C745.457 66.916 747.389 63.4097 751.252 59.6724C754.611 56.481 758.118 53.9824 761.771 52.1768C768.028 49.1533 772.752 47.6416 775.943 47.6416C779.261 47.6416 781.654 47.9985 783.124 48.7124C784.594 49.4263 785.329 50.0562 785.329 50.6021C785.329 51.106 785.161 51.5679 784.825 51.9878C784.489 52.4077 784.069 52.8066 783.565 53.1846C783.103 53.5205 782.62 53.8354 782.116 54.1294C781.612 54.4233 780.898 54.8643 779.975 55.4521C779.051 56.04 777.812 56.8379 776.258 57.8457C774.705 58.8115 773.256 59.9033 771.912 61.1211Z" fill="black"/>
</svg>
