<svg width="112" height="112" viewBox="0 0 112 112" fill="none" xmlns="http://www.w3.org/2000/svg">
<path d="M55.8506 0C86.6958 0.000131943 111.701 25.0054 111.701 55.8506C111.701 61.6366 110.822 67.2173 109.188 72.4658H87.4492C90.0642 67.5028 91.5469 61.8503 91.5469 55.8506C91.5469 36.1359 75.5653 20.1543 55.8506 20.1543C36.1359 20.1543 20.1543 36.1359 20.1543 55.8506C20.1543 75.5653 36.1359 91.5469 55.8506 91.5469C61.6481 91.5469 67.1216 90.1625 71.9619 87.71V109.341C66.8604 110.875 61.452 111.701 55.8506 111.701C25.0053 111.701 0 86.6959 0 55.8506C0 25.0053 25.0053 0 55.8506 0Z" fill="black"/>
<path d="M111.197 111.701H80.9619V81.4658H111.197V111.701Z" fill="#EE9B00"/>
</svg>
