<svg width="330" height="126" viewBox="0 0 330 126" fill="none" xmlns="http://www.w3.org/2000/svg">
<path fill-rule="evenodd" clip-rule="evenodd" d="M57.4453 13.4805C68.9092 13.4805 78.7773 17.2803 87.0498 24.8809C95.5322 32.6914 99.7734 42.2871 99.7734 53.667C99.7733 65.9704 95.0495 77.3713 85.6016 87.8691C82.7461 91.0186 79.6592 93.8955 76.3418 96.499C79.4072 98.6406 82.6407 100.908 86.042 103.302C89.4433 105.653 92.9708 107.837 96.624 109.853C105.022 114.514 112.581 116.844 119.3 116.844C122.995 116.844 127.656 115.689 133.283 113.38C127.74 118.923 121.253 122.639 113.82 124.528C111.343 125.158 108.718 125.474 105.946 125.474C100.655 125.474 95.4062 124.066 90.1992 121.253C83.1447 117.516 74.3054 112.036 63.6816 104.813C57.4669 107.921 50.8738 109.475 43.9033 109.475C36.9747 109.475 30.8642 108.509 25.5732 106.577C20.2823 104.646 15.747 101.874 11.9678 98.2627C3.98926 90.6201 0 80.3945 0 67.5869C0 57.8867 2.81348 48.7744 8.44043 40.25C13.8154 32.1035 20.8701 25.6367 29.6045 20.8496C38.5908 15.9365 47.8711 13.4805 57.4453 13.4805ZM44.5957 22.2988C27.7568 22.2988 17.5527 29.332 13.9834 43.3994C12.8496 47.8506 12.2832 53.0996 12.2832 59.1465C12.2832 65.1514 13.333 70.7783 15.4326 76.0273C17.5322 81.2763 20.4922 85.7696 24.3135 89.5068C32.334 97.2754 42.748 101.16 55.5557 101.16C66.1795 101.16 74.2842 97.4226 79.8691 89.9482C84.9502 83.1875 87.4912 74.0957 87.4912 62.6738C87.4912 57.005 86.3778 51.6512 84.1523 46.6123C81.9688 41.5312 78.9453 37.1846 75.082 33.5732C67.0195 26.0566 56.8574 22.2988 44.5957 22.2988Z" fill="black"/>
<path d="M119.555 45.1006C124.132 45.1008 126.42 48.0187 126.42 53.8555C126.42 53.8555 126.42 55.2627 126.42 58.0762C126.42 58.1473 126.399 65.9786 126.357 81.5703C126.357 87.5752 127.47 91.9844 129.695 94.7979C132.131 97.9893 136.184 99.585 141.853 99.585C144.624 99.5848 147.5 98.3884 150.481 95.9951C151.237 95.4073 151.909 94.9033 152.497 94.4834V61.2256C152.497 58.1183 151.741 55.9766 150.229 54.8008C149.6 54.3389 148.823 54.1075 147.899 54.1074C146.976 54.1074 146.03 54.3174 145.064 54.7373C151.825 48.6485 156.78 45.6045 159.93 45.6045C163.079 45.6045 164.654 47.6201 164.654 51.6514V91.6484C164.654 94.1679 165.221 96.0576 166.354 97.3174C167.488 98.5771 169.378 99.207 172.023 99.207C173.871 99.207 175.677 98.8711 177.44 98.1992C176.055 98.7031 174.795 99.501 173.661 100.593C172.569 101.643 171.394 102.714 170.134 103.806C166.985 106.535 163.394 107.899 159.363 107.899C155.5 107.899 153.295 105.758 152.749 101.475C152.623 100.257 152.539 99.0184 152.497 97.7588C143.343 104.687 135.218 108.151 128.121 108.151C123.334 108.151 119.723 106.052 117.287 101.853C115.104 98.0732 114.012 92.9082 114.012 86.3574V65.1309C114.012 61.4779 113.696 59.0001 113.066 57.6982C111.891 55.0948 109.77 53.7931 106.705 53.793C105.235 53.793 103.744 54.1074 102.232 54.7373C107.355 50.1602 111.513 47.2627 114.704 46.0449C116.258 45.415 117.875 45.1006 119.555 45.1006Z" fill="black"/>
<path d="M224.876 45.2266C226.807 45.2266 228.235 45.541 229.159 46.1709C230.125 46.8008 230.817 47.6407 231.237 48.6904C231.783 49.9922 232.057 52.4697 232.057 56.123C239.909 49.1944 247.258 45.7305 254.103 45.7305C257.84 45.7305 261.094 46.9063 263.865 49.2578C266.763 51.7773 268.212 54.8428 268.212 58.4541V89.5703C268.212 92.6775 268.548 94.8194 269.22 95.9951C270.48 98.2204 272.579 99.333 275.519 99.333C277.198 99.333 278.794 99.0185 280.306 98.3887C276.568 101.622 273.985 103.7 272.558 104.624C269.282 106.765 266.406 107.837 263.929 107.837C261.493 107.837 259.75 107.396 258.7 106.514C257.693 105.632 256.979 104.519 256.559 103.176C256.097 101.706 255.866 98.7031 255.866 94.168V70.6104C255.866 63.0938 253.409 58.1387 248.496 55.7451C246.733 54.9054 244.612 54.4854 242.135 54.4854C236.046 54.4854 232.749 59 232.245 68.0283C232.119 70.2957 232.057 72.3322 232.057 74.1377V93.6016C232.057 96.2887 232.875 98.1153 234.513 99.0811C235.101 99.459 235.836 99.6484 236.718 99.6484C237.6 99.6484 238.524 99.4384 239.489 99.0186C238.607 99.7744 237.558 100.677 236.34 101.727C235.122 102.776 233.841 103.784 232.497 104.75C229.18 107.018 226.534 108.151 224.561 108.151C221.369 108.151 219.773 106.304 219.773 102.608L219.837 62.1074C219.837 59.2944 219.459 57.4044 218.703 56.4385C217.401 54.7589 215.596 53.919 213.286 53.9189C210.977 53.9189 208.919 54.2549 207.113 54.9268C208.205 54.5068 209.633 53.5195 211.396 51.9658C214.63 48.9847 216.918 47.2424 218.262 46.7383C220.781 45.7305 222.986 45.2266 224.876 45.2266Z" fill="black"/>
<path d="M197.978 87.9951C197.978 92.2783 198.25 94.9873 198.796 96.1211C199.972 98.4304 202.575 99.5849 206.606 99.585C207.698 99.585 209.021 99.4385 210.575 99.1445C209.315 100.152 208.076 101.181 206.858 102.23C205.683 103.28 204.444 104.246 203.143 105.128C200.119 107.101 197.222 108.089 194.45 108.089C191.847 108.089 190.02 107.689 188.97 106.892C186.828 105.296 185.758 102.356 185.758 98.0732V68.2168C185.758 63.6816 184.938 60.7422 183.301 59.3984C182.545 58.7687 181.726 58.4542 180.845 58.4541C179.963 58.4541 179.207 58.5166 178.577 58.6426C177.989 58.7266 177.38 58.832 176.75 58.958C176.12 59.084 175.47 59.21 174.798 59.3359C176.897 57.6983 178.85 56.2285 180.655 54.9268C182.503 53.625 184.078 52.5332 185.38 51.6514C186.682 50.7695 188.487 49.5303 190.797 47.9346C193.106 46.2969 195.5 44.8271 197.978 43.5254V87.9951Z" fill="black"/>
<path fill-rule="evenodd" clip-rule="evenodd" d="M315.771 45.1631C318.29 45.1631 320.41 46.0871 322.132 47.9346C323.728 49.7402 324.525 51.7979 324.525 54.1074C324.525 56.417 324.021 58.5586 323.014 60.5322C322.006 62.4638 320.684 64.3536 319.046 66.2012C317.45 68.0488 315.603 69.834 313.503 71.5557C311.445 73.2353 309.324 74.8096 307.141 76.2793C304.075 78.3789 300.212 80.752 295.551 83.3975C296.895 88.4783 299.268 92.4044 302.669 95.1758C306.07 97.9052 310.458 99.2705 315.833 99.2705C320.368 99.2705 325.029 97.9266 329.816 95.2393C324.064 101.664 316.925 105.674 308.4 107.27C306.427 107.605 303.991 107.773 301.094 107.773C298.196 107.773 295.467 106.976 292.905 105.38C290.344 103.742 288.244 101.643 286.606 99.0811C283.499 94.126 281.945 88.079 281.945 80.9404C281.945 76.2373 283.751 71.0302 287.362 65.3193C290.89 59.6924 295.194 54.9893 300.275 51.21C305.734 47.1788 310.899 45.1631 315.771 45.1631ZM303.929 53.9814C297.546 53.9814 294.354 60.4902 294.354 73.5078C294.354 75.8174 294.543 78.1064 294.921 80.374C302.311 78.3164 307.603 74.8515 310.794 69.9805C311.928 68.1748 312.495 66.4111 312.495 64.6895C312.495 62.9679 312.306 61.5195 311.928 60.3438C311.55 59.126 311.004 58.0547 310.29 57.1309C308.652 55.0314 306.532 53.9815 303.929 53.9814Z" fill="black"/>
<path d="M197.788 7.18164V10.457C197.788 12.4724 197.536 13.711 197.032 14.1729C196.528 14.5927 195.982 15.0127 195.395 15.4326C193.043 17.1123 189.642 19.3799 185.19 22.2354C185.4 18.0414 185.506 15.879 185.506 15.748C185.506 15.5801 185.4 13.1862 185.19 8.56738L197.41 0L197.788 7.18164Z" fill="black"/>
</svg>
